<?xml version="1.0" standalone="no"?>
<!DOCTYPE svg PUBLIC "-//W3C//DTD SVG 1.1//EN" "http://www.w3.org/Graphics/SVG/1.1/DTD/svg11.dtd" >
<svg xmlns="http://www.w3.org/2000/svg">
<metadata>
This is a custom SVG webfont generated by Font Squirrel.
Copyright   : Copyright c 2010 by Prinya R nont All rights reserved
Designer    : Prinya Rojarayanont
Foundry     : Prinya R nont
Foundry URL : httpwwwdbfontsbiz
</metadata>
<defs>
<font id="DBMettaXMedium" horiz-adv-x="0" >
<font-face units-per-em="2048" ascent="1638" descent="-410" />
<missing-glyph horiz-adv-x="500" />
<glyph d="M-884 972q40 22 87 38.5t91 27.5t82 16q38 6 60 6q49 0 91 -9t76 -26t58.5 -44t38.5 -65l-104 -20q-16 23 -38 36.5t-46 20.5t-47 9t-39 2q-20 0 -50 -3.5t-65 -12t-72 -22.5t-71 -34z" />
<glyph unicode="&#xf701;" d="M-884 972q40 22 87 38.5t91 27.5t82 16q38 6 60 6q49 0 91 -9t76 -26t58.5 -44t38.5 -65l-104 -20q-16 23 -38 36.5t-46 20.5t-47 9t-39 2q-20 0 -50 -3.5t-65 -12t-72 -22.5t-71 -34z" />
<glyph d="M-885 972q52 28 98 46t84.5 29t68.5 16t51 5q18 0 37.5 -1t39 -5t38.5 -10q20 -6 38 -18l-1 149l106 21v-288l-86 -20q-12 21 -30 35.5t-40.5 23.5t-48.5 13t-53 4q-26 0 -56.5 -5t-64 -16t-67 -25.5t-63.5 -33.5z" />
<glyph unicode="&#xf702;" d="M-885 972q52 28 98 46t84.5 29t68.5 16t51 5q18 0 37.5 -1t39 -5t38.5 -10q20 -6 38 -18l-1 149l106 21v-288l-86 -20q-12 21 -30 35.5t-40.5 23.5t-48.5 13t-53 4q-26 0 -56.5 -5t-64 -16t-67 -25.5t-63.5 -33.5z" />
<glyph d="M-884 984q29 18 60.5 32.5t62 24t60 14.5t53.5 5q14 0 32.5 -1t36.5 -4t35 -7t29 -10q0 25 10.5 45.5t27.5 34.5t37.5 22t40.5 8q26 0 48.5 -10t39.5 -27t27 -39.5t10 -48.5t-10 -48.5t-27 -39.5t-39.5 -27t-48.5 -10q-15 0 -39 8t-53 22q-25 12 -47 18.5t-41 10t-37 3.5 q-18 2 -34 2t-38 -3.5t-47 -11t-52 -19.5t-52 -27zM-452 1023q0 -11 4 -21t11.5 -17t17 -11t20.5 -4t21 4t17 11t11 17t4 21t-4 20.5t-11 17t-17 11.5t-21 4t-20.5 -4t-17 -11.5t-11.5 -17t-4 -20.5z" />
<glyph unicode="&#xf703;" d="M-884 984q29 18 60.5 32.5t62 24t60 14.5t53.5 5q14 0 32.5 -1t36.5 -4t35 -7t29 -10q0 25 10.5 45.5t27.5 34.5t37.5 22t40.5 8q26 0 48.5 -10t39.5 -27t27 -39.5t10 -48.5t-10 -48.5t-27 -39.5t-39.5 -27t-48.5 -10q-15 0 -39 8t-53 22q-25 12 -47 18.5t-41 10t-37 3.5 q-18 2 -34 2t-38 -3.5t-47 -11t-52 -19.5t-52 -27zM-452 1023q0 -11 4 -21t11.5 -17t17 -11t20.5 -4t21 4t17 11t11 17t4 21t-4 20.5t-11 17t-17 11.5t-21 4t-20.5 -4t-17 -11.5t-11.5 -17t-4 -20.5z" />
<glyph d="M-892 972q36 20 74 35t76 26t73.5 17t64.5 8v128l96 18v-148q20 -4 44 -12t42 -17v159l96 18v-288l-84 -20q-20 24 -46.5 38t-52 21t-47.5 9h-35q-24 0 -52.5 -4t-61.5 -12t-67.5 -22t-68.5 -34z" />
<glyph unicode="&#xf704;" d="M-892 972q36 20 74 35t76 26t73.5 17t64.5 8v128l96 18v-148q20 -4 44 -12t42 -17v159l96 18v-288l-84 -20q-20 24 -46.5 38t-52 21t-47.5 9h-35q-24 0 -52.5 -4t-61.5 -12t-67.5 -22t-68.5 -34z" />
<glyph d="M-456 910v251l106 23v-274h-106z" />
<glyph unicode="&#xf705;" d="M-456 910v251l106 23v-274h-106z" />
<glyph d="M-748 1108q0 22 9 41t24 34t35 23t42 8q26 0 46.5 -8.5t34.5 -23.5t21.5 -35.5t7.5 -44.5q0 -12 -2 -26t-6.5 -28t-13 -28t-20.5 -28q38 8 69 21t57 29.5t47 36t37 41.5l64 -60q-2 -4 -11 -15.5t-25 -26t-39 -30.5t-54.5 -31.5t-71.5 -28.5q-41 -12 -89 -19 q-34 -4 -63.5 -6.5t-62.5 -2.5l-26 66q46 6 70 16t36 26h-8q-19 -1 -38 6t-34.5 20.5t-25.5 32.5t-10 41zM-684 1106q0 -12 4 -20.5t11 -14.5t15 -9.5t18 -3.5q18 0 32 14t14 36q0 10 -4 18t-10 14t-15 10t-17 4q-9 0 -17.5 -3.5t-15.5 -10t-11 -15.5t-4 -19z" />
<glyph unicode="&#xf706;" d="M-748 1108q0 22 9 41t24 34t35 23t42 8q26 0 46.5 -8.5t34.5 -23.5t21.5 -35.5t7.5 -44.5q0 -12 -2 -26t-6.5 -28t-13 -28t-20.5 -28q38 8 69 21t57 29.5t47 36t37 41.5l64 -60q-2 -4 -11 -15.5t-25 -26t-39 -30.5t-54.5 -31.5t-71.5 -28.5q-41 -12 -89 -19 q-34 -4 -63.5 -6.5t-62.5 -2.5l-26 66q46 6 70 16t36 26h-8q-19 -1 -38 6t-34.5 20.5t-25.5 32.5t-10 41zM-684 1106q0 -12 4 -20.5t11 -14.5t15 -9.5t18 -3.5q18 0 32 14t14 36q0 10 -4 18t-10 14t-15 10t-17 4q-9 0 -17.5 -3.5t-15.5 -10t-11 -15.5t-4 -19z" />
<glyph d="M-838 1024q0 24 9 46t26 38t38.5 26t46.5 10q34 0 62.5 -18t41.5 -54l66 71q12 2 19 2h15q30 0 53 -12q23 -13 36 -33q6 -8 9 -19.5t3.5 -25t-3.5 -27.5q-4 -15 -10 -27q-3 -6 -6 -11q-2 -4 -8 -9q16 5 29.5 17t25 29t20.5 35t15 36l78 -36q-13 -30 -33 -57t-49 -49 t-68 -36t-90 -16l-36 45q12 8 23.5 17t20 20t12.5 24q4 12 4 24t-8 22.5t-22 11.5l-114 -129q-16 -17 -38 -25q-24 -9 -48 -9q-22 0 -44 7.5t-39 22.5t-27 37t-10 52zM-769 1025q0 -13 4.5 -23t11.5 -17t17 -10t20 -3t19.5 4t17 11t11.5 17t4 23q0 10 -4 19.5t-11.5 16.5 t-17 11t-19.5 4t-20 -4t-17 -11t-11.5 -16.5t-4.5 -21.5z" />
<glyph unicode="&#xf707;" d="M-838 1024q0 24 9 46t26 38t38.5 26t46.5 10q34 0 62.5 -18t41.5 -54l66 71q12 2 19 2h15q30 0 53 -12q23 -13 36 -33q6 -8 9 -19.5t3.5 -25t-3.5 -27.5q-4 -15 -10 -27q-3 -6 -6 -11q-2 -4 -8 -9q16 5 29.5 17t25 29t20.5 35t15 36l78 -36q-13 -30 -33 -57t-49 -49 t-68 -36t-90 -16l-36 45q12 8 23.5 17t20 20t12.5 24q4 12 4 24t-8 22.5t-22 11.5l-114 -129q-16 -17 -38 -25q-24 -9 -48 -9q-22 0 -44 7.5t-39 22.5t-27 37t-10 52zM-769 1025q0 -13 4.5 -23t11.5 -17t17 -10t20 -3t19.5 4t17 11t11.5 17t4 23q0 10 -4 19.5t-11.5 16.5 t-17 11t-19.5 4t-20 -4t-17 -11t-11.5 -16.5t-4.5 -21.5z" />
<glyph d="M-642 1006v85h112v93l96 22v-115h113v-85h-113v-98h-96v98h-112z" />
<glyph unicode="&#xf708;" d="M-642 1006v85h112v93l96 22v-115h113v-85h-113v-98h-96v98h-112z" />
<glyph d="M-621 1016q-1 40 27 78q12 16 30.5 30t40 27t45 24t45 20t39.5 15t28 10l28 -74q-7 -2 -19.5 -6.5t-28.5 -10.5t-33 -13.5t-32 -15.5q22 -13 34.5 -34.5t12.5 -49.5q0 -22 -8.5 -42t-23 -35t-34.5 -23.5t-42 -8.5t-42 8.5t-35 23.5t-23.5 35t-8.5 42zM-552 1016 q0 -17 12 -29.5t29 -12.5t29 12.5t12 29.5t-12 29.5t-29 12.5t-29 -12.5t-12 -29.5z" />
<glyph unicode="&#xf709;" d="M-621 1016q-1 40 27 78q12 16 30.5 30t40 27t45 24t45 20t39.5 15t28 10l28 -74q-7 -2 -19.5 -6.5t-28.5 -10.5t-33 -13.5t-32 -15.5q22 -13 34.5 -34.5t12.5 -49.5q0 -22 -8.5 -42t-23 -35t-34.5 -23.5t-42 -8.5t-42 8.5t-35 23.5t-23.5 35t-8.5 42zM-552 1016 q0 -17 12 -29.5t29 -12.5t29 12.5t12 29.5t-12 29.5t-29 12.5t-29 -12.5t-12 -29.5z" />
<glyph d="M-222 910v248l110 27v-275h-110z" />
<glyph unicode="&#xf70a;" d="M-222 910v248l110 27v-275h-110z" />
<glyph d="M-539 1114q0 22 9.5 42t24.5 35t36 23.5t43 8.5q26 0 47 -8.5t35.5 -24.5t22 -37t7.5 -45q0 -25 -9 -54t-33 -58q38 8 70.5 21t59 30t47.5 37t37 42l66 -61q-2 -4 -11 -15.5t-25.5 -26.5t-40 -32t-56 -33t-73.5 -28q-40 -14 -90 -20q-36 -4 -66 -6t-64 -2l-28 70 q23 3 39.5 7.5t29.5 9.5t21 11t14 12h-2q-19 -1 -39 6.5t-36 21t-26 32.5t-10 42zM-472 1112q0 -12 4 -20.5t10.5 -14.5t15 -9t16.5 -3q18 0 32.5 13.5t14.5 35.5q0 20 -14 33q-15 13 -33 13q-9 0 -17 -3t-14.5 -9.5t-10.5 -16t-4 -19.5z" />
<glyph unicode="&#xf70b;" d="M-539 1114q0 22 9.5 42t24.5 35t36 23.5t43 8.5q26 0 47 -8.5t35.5 -24.5t22 -37t7.5 -45q0 -25 -9 -54t-33 -58q38 8 70.5 21t59 30t47.5 37t37 42l66 -61q-2 -4 -11 -15.5t-25.5 -26.5t-40 -32t-56 -33t-73.5 -28q-40 -14 -90 -20q-36 -4 -66 -6t-64 -2l-28 70 q23 3 39.5 7.5t29.5 9.5t21 11t14 12h-2q-19 -1 -39 6.5t-36 21t-26 32.5t-10 42zM-472 1112q0 -12 4 -20.5t10.5 -14.5t15 -9t16.5 -3q18 0 32.5 13.5t14.5 35.5q0 20 -14 33q-15 13 -33 13q-9 0 -17 -3t-14.5 -9.5t-10.5 -16t-4 -19.5z" />
<glyph d="M-662 1026q0 26 10 48t27 39t39 27t48 10q18 0 34.5 -5t30.5 -14t25 -23q12 -14 18 -32l68 74q13 2 19.5 2h14.5q32 0 55 -13t37 -33q6 -8 9 -20.5t3 -27t-3 -28.5t-10 -27q-3 -6 -7 -11q-2 -4 -8 -10q16 5 30 18t26 29.5t22 36.5q8 20 14 38l81 -38q-13 -30 -34 -58.5 t-51 -51t-70 -36.5t-92 -16l-37 46q12 8 24 17.5t20.5 20.5t13.5 23.5t5 26.5q0 12 -8 22q-10 11 -24 12l-117 -132q-17 -18 -40 -27t-48 -9q-24 0 -46 8t-39.5 23t-28.5 38t-11 53zM-589 1028q0 -13 4.5 -23.5t12 -17t17 -10t19.5 -3.5t20 4t17 11.5t11.5 18t4.5 22.5 q0 10 -4.5 19.5t-11.5 17t-17 11.5t-20 4t-19.5 -4t-17 -11t-12 -17t-4.5 -22z" />
<glyph unicode="&#xf70c;" d="M-662 1026q0 26 10 48t27 39t39 27t48 10q18 0 34.5 -5t30.5 -14t25 -23q12 -14 18 -32l68 74q13 2 19.5 2h14.5q32 0 55 -13t37 -33q6 -8 9 -20.5t3 -27t-3 -28.5t-10 -27q-3 -6 -7 -11q-2 -4 -8 -10q16 5 30 18t26 29.5t22 36.5q8 20 14 38l81 -38q-13 -30 -34 -58.5 t-51 -51t-70 -36.5t-92 -16l-37 46q12 8 24 17.5t20.5 20.5t13.5 23.5t5 26.5q0 12 -8 22q-10 11 -24 12l-117 -132q-17 -18 -40 -27t-48 -9q-24 0 -46 8t-39.5 23t-28.5 38t-11 53zM-589 1028q0 -13 4.5 -23.5t12 -17t17 -10t19.5 -3.5t20 4t17 11.5t11.5 18t4.5 22.5 q0 10 -4.5 19.5t-11.5 17t-17 11.5t-20 4t-19.5 -4t-17 -11t-12 -17t-4.5 -22z" />
<glyph d="M-344 1010v91h122v91l110 27v-118h123v-91h-123v-100h-110v100h-122z" />
<glyph unicode="&#xf70d;" d="M-344 1010v91h122v91l110 27v-118h123v-91h-123v-100h-110v100h-122z" />
<glyph d="M-394 1012q0 41 28 80q12 16 31 31t41 28t46 24.5t46 21t40 16t30 10.5l28 -77q-8 -2 -20.5 -7t-28 -11t-33.5 -13t-34 -15q23 -13 35.5 -35.5t12.5 -51.5q0 -23 -8.5 -43.5t-23.5 -36t-35.5 -24.5t-42.5 -9q-23 0 -43.5 9t-36 24t-24 35.5t-8.5 43.5zM-328 1012 q0 -19 14 -32.5t32 -13.5q10 0 18.5 4t15 10t10.5 14q3 8 3 18t-3.5 18t-10 15t-15 10.5t-18.5 3.5t-18 -3.5t-14 -10.5t-10 -15t-4 -18z" />
<glyph unicode="&#xf70e;" d="M-394 1012q0 41 28 80q12 16 31 31t41 28t46 24.5t46 21t40 16t30 10.5l28 -77q-8 -2 -20.5 -7t-28 -11t-33.5 -13t-34 -15q23 -13 35.5 -35.5t12.5 -51.5q0 -23 -8.5 -43.5t-23.5 -36t-35.5 -24.5t-42.5 -9q-23 0 -43.5 9t-36 24t-24 35.5t-8.5 43.5zM-328 1012 q0 -19 14 -32.5t32 -13.5q10 0 18.5 4t15 10t10.5 14q3 8 3 18t-3.5 18t-10 15t-15 10.5t-18.5 3.5t-18 -3.5t-14 -10.5t-10 -15t-4 -18z" />
<glyph d="M-570 1050q0 26 10 48.5t27.5 39.5t41 26.5t51.5 9.5t50 -9.5t37.5 -26t23.5 -37.5t8 -45q0 -18 -4.5 -33t-12.5 -26q-1 -2 -3 -5q-3 -2 -5 -4q3 0 6 1q4 1 8 1q42 2 81 11t76 25t73 39.5t72 52.5l64 -68q-52 -40 -99 -66t-93 -42q-36 -12 -68 -19.5t-59.5 -11 t-49.5 -4.5t-37 -1q-34 0 -65 4.5t-56 16.5q-36 18 -56.5 48.5t-20.5 74.5zM-500 1050q0 -12 4 -22t11.5 -17t17.5 -11.5t22 -4.5t22 4.5t17.5 11.5t11.5 17t4 22t-4 22t-11.5 18t-18 12t-21.5 4q-24 0 -39.5 -16t-15.5 -40z" />
<glyph unicode="&#xf710;" d="M-570 1050q0 26 10 48.5t27.5 39.5t41 26.5t51.5 9.5t50 -9.5t37.5 -26t23.5 -37.5t8 -45q0 -18 -4.5 -33t-12.5 -26q-1 -2 -3 -5q-3 -2 -5 -4q3 0 6 1q4 1 8 1q42 2 81 11t76 25t73 39.5t72 52.5l64 -68q-52 -40 -99 -66t-93 -42q-36 -12 -68 -19.5t-59.5 -11 t-49.5 -4.5t-37 -1q-34 0 -65 4.5t-56 16.5q-36 18 -56.5 48.5t-20.5 74.5zM-500 1050q0 -12 4 -22t11.5 -17t17.5 -11.5t22 -4.5t22 4.5t17.5 11.5t11.5 17t4 22t-4 22t-11.5 18t-18 12t-21.5 4q-24 0 -39.5 -16t-15.5 -40z" />
<glyph d="M-580 1036q0 27 10.5 51.5t28 42t41.5 28t52 10.5q27 0 50.5 -10.5t41.5 -28t28 -41.5t10 -52q0 -27 -10 -50.5t-28 -41.5t-42 -28t-50 -10q-27 0 -51.5 10t-42 28t-28 41.5t-10.5 50.5zM-508 1036q0 -12 5 -23t13 -18.5t18 -12.5q12 -4 24 -4t23 4.5t19 12t12.5 18.5 t4.5 23t-4.5 23t-12.5 19t-19 12.5t-23 4.5t-23 -4.5t-19 -12.5t-13 -19t-5 -23z" />
<glyph unicode="&#xf711;" d="M-580 1036q0 27 10.5 51.5t28 42t41.5 28t52 10.5q27 0 50.5 -10.5t41.5 -28t28 -41.5t10 -52q0 -27 -10 -50.5t-28 -41.5t-42 -28t-50 -10q-27 0 -51.5 10t-42 28t-28 41.5t-10.5 50.5zM-508 1036q0 -12 5 -23t13 -18.5t18 -12.5q12 -4 24 -4t23 4.5t19 12t12.5 18.5 t4.5 23t-4.5 23t-12.5 19t-19 12.5t-23 4.5t-23 -4.5t-19 -12.5t-13 -19t-5 -23z" />
<glyph d="M-778 1074v8.5v8.5q4 34 20.5 63.5t44 51.5t65.5 35t86 13h160q11 0 18 1q8 1 16 10l55 57l58 -58l-55 -61q-8 -9 -20 -15t-24 -9.5t-23.5 -5t-20.5 -1.5h-154q-26 0 -51 -4t-44 -14.5t-31 -27t-14 -42.5q0 -12 3.5 -26t9 -26t13.5 -22t18 -14l130 94q24 18 50 28.5 t49 10.5t43 -8.5t35.5 -24t24 -36t8.5 -43.5t-8.5 -43t-24 -35.5t-35.5 -24t-43 -8.5q-38 0 -67.5 21t-39.5 63l-118 -86q-22 0 -46 14t-44 37t-32 54t-12 65zM-471 1016q0 -20 13.5 -34t34.5 -14q20 0 34 14t14 34t-13.5 34t-34.5 14q-20 0 -34 -14t-14 -34z" />
<glyph unicode="&#xf712;" d="M-778 1074v8.5v8.5q4 34 20.5 63.5t44 51.5t65.5 35t86 13h160q11 0 18 1q8 1 16 10l55 57l58 -58l-55 -61q-8 -9 -20 -15t-24 -9.5t-23.5 -5t-20.5 -1.5h-154q-26 0 -51 -4t-44 -14.5t-31 -27t-14 -42.5q0 -12 3.5 -26t9 -26t13.5 -22t18 -14l130 94q24 18 50 28.5 t49 10.5t43 -8.5t35.5 -24t24 -36t8.5 -43.5t-8.5 -43t-24 -35.5t-35.5 -24t-43 -8.5q-38 0 -67.5 21t-39.5 63l-118 -86q-22 0 -46 14t-44 37t-32 54t-12 65zM-471 1016q0 -20 13.5 -34t34.5 -14q20 0 34 14t14 34t-13.5 34t-34.5 14q-20 0 -34 -14t-14 -34z" />
<glyph d="M-430 1268v210l105 23v-233h-105z" />
<glyph unicode="&#xf713;" d="M-430 1268v210l105 23v-233h-105z" />
<glyph d="M-560 1467q0 22 9 41.5t24.5 33.5t35.5 22.5t42 8.5q26 0 46.5 -8.5t34.5 -23.5t21 -35t7 -44q0 -25 -7 -53q-7 -29 -30 -57q38 8 68.5 21t55.5 29.5t45 36t36 39.5l64 -59q-2 -4 -11 -15.5t-24.5 -26t-39 -31t-54.5 -31.5t-71 -28t-89 -19q-34 -4 -63.5 -6.5t-63.5 -2.5 l-27 69q22 3 39 7t29 9.5t20 11t14 11.5h-3q-19 -1 -37.5 6t-34.5 20.5t-26 32.5t-10 41zM-496 1465q0 -12 4 -20.5t11 -14.5t15.5 -9.5t17.5 -3.5q19 0 33 13.5t14 36.5q0 10 -3.5 18t-10.5 14.5t-15 10.5t-18 4q-9 0 -17.5 -4t-15.5 -10t-11 -15t-4 -20z" />
<glyph unicode="&#xf714;" d="M-560 1467q0 22 9 41.5t24.5 33.5t35.5 22.5t42 8.5q26 0 46.5 -8.5t34.5 -23.5t21 -35t7 -44q0 -25 -7 -53q-7 -29 -30 -57q38 8 68.5 21t55.5 29.5t45 36t36 39.5l64 -59q-2 -4 -11 -15.5t-24.5 -26t-39 -31t-54.5 -31.5t-71 -28t-89 -19q-34 -4 -63.5 -6.5t-63.5 -2.5 l-27 69q22 3 39 7t29 9.5t20 11t14 11.5h-3q-19 -1 -37.5 6t-34.5 20.5t-26 32.5t-10 41zM-496 1465q0 -12 4 -20.5t11 -14.5t15.5 -9.5t17.5 -3.5q19 0 33 13.5t14 36.5q0 10 -3.5 18t-10.5 14.5t-15 10.5t-18 4q-9 0 -17.5 -4t-15.5 -10t-11 -15t-4 -20z" />
<glyph d="M-672 1383q0 24 10 46.5t26 38.5t38 25.5t47 9.5q34 0 62.5 -18t41.5 -54l67 71q12 2 18 2h14q30 0 53.5 -12t36.5 -32q6 -8 9 -20t3 -25.5t-3 -28t-9 -26.5q-3 -6 -6 -10q-4 -6 -10 -10q16 5 30 17.5t26 29t20 35.5q8 18 14 36l79 -36q-13 -30 -33 -57.5t-49 -49.5 t-68 -36q-39 -13 -90 -15l-36 44q12 8 23.5 17t19.5 20t13 23.5t5 25.5q0 12 -8 22t-22 12l-115 -130q-16 -17 -38.5 -25.5t-46.5 -8.5q-22 0 -44 8t-39 22.5t-28 36.5t-11 52zM-601 1384q0 -13 4.5 -22.5t11.5 -16t16 -10t19 -3.5t20 4t17 11t11 17t4 22q0 10 -4 19.5 t-11 16.5t-17 11t-20 4t-19 -3.5t-16 -10.5t-11.5 -17t-4.5 -22z" />
<glyph unicode="&#xf715;" d="M-672 1383q0 24 10 46.5t26 38.5t38 25.5t47 9.5q34 0 62.5 -18t41.5 -54l67 71q12 2 18 2h14q30 0 53.5 -12t36.5 -32q6 -8 9 -20t3 -25.5t-3 -28t-9 -26.5q-3 -6 -6 -10q-4 -6 -10 -10q16 5 30 17.5t26 29t20 35.5q8 18 14 36l79 -36q-13 -30 -33 -57.5t-49 -49.5 t-68 -36q-39 -13 -90 -15l-36 44q12 8 23.5 17t19.5 20t13 23.5t5 25.5q0 12 -8 22t-22 12l-115 -130q-16 -17 -38.5 -25.5t-46.5 -8.5q-22 0 -44 8t-39 22.5t-28 36.5t-11 52zM-601 1384q0 -13 4.5 -22.5t11.5 -16t16 -10t19 -3.5t20 4t17 11t11 17t4 22q0 10 -4 19.5 t-11 16.5t-17 11t-20 4t-19 -3.5t-16 -10.5t-11.5 -17t-4.5 -22z" />
<glyph d="M-534 1365v85h112v94l96 22v-116h113v-85h-113v-97h-96v97h-112z" />
<glyph unicode="&#xf716;" d="M-534 1365v85h112v94l96 22v-116h113v-85h-113v-97h-96v97h-112z" />
<glyph d="M-522 1224q0 40 27 78q12 16 30.5 30t40 27t45 24t44.5 20t39 15t29 10l27 -74q-7 -2 -19.5 -6.5t-28 -10.5t-32.5 -13l-32 -16q22 -13 34 -34.5t12 -49.5q0 -22 -8 -42t-23 -35t-35 -23q-20 -9 -42 -9t-42 8.5t-35 23.5t-23 35t-8 42zM-456 1224q0 -9 3.5 -16.5 t9.5 -13.5t13.5 -10t17.5 -4q9 0 16.5 4t13.5 10t9.5 13.5t3.5 16.5t-3.5 16.5t-9.5 13.5t-14 10t-16 4q-9 0 -17 -4t-14 -10t-9.5 -13.5t-3.5 -16.5z" />
<glyph unicode="&#xf717;" d="M-522 1224q0 40 27 78q12 16 30.5 30t40 27t45 24t44.5 20t39 15t29 10l27 -74q-7 -2 -19.5 -6.5t-28 -10.5t-32.5 -13l-32 -16q22 -13 34 -34.5t12 -49.5q0 -22 -8 -42t-23 -35t-35 -23q-20 -9 -42 -9t-42 8.5t-35 23.5t-23 35t-8 42zM-456 1224q0 -9 3.5 -16.5 t9.5 -13.5t13.5 -10t17.5 -4q9 0 16.5 4t13.5 10t9.5 13.5t3.5 16.5t-3.5 16.5t-9.5 13.5t-14 10t-16 4q-9 0 -17 -4t-14 -10t-9.5 -13.5t-3.5 -16.5z" />
<glyph unicode="&#xe01;" horiz-adv-x="847" d="M68 636q44 32 92 58t98.5 45t100.5 30t96 11q52 0 95.5 -7.5t76.5 -23.5t56 -41.5t37 -63.5q4 -13 7 -30.5t5 -36t3 -38t1 -35.5v-504h-120v488q0 34 -2 60.5t-8 46t-18 33.5t-31 23t-47.5 13t-67.5 4q-31 0 -61 -5t-57.5 -12.5t-52.5 -18t-46 -22.5q26 -30 37 -56 t11 -54v-500h-119v466q0 26 -6 48t-20 44q-12 19 -27 38.5t-33 39.5z" />
<glyph unicode="&#xe02;" horiz-adv-x="746" d="M21 616q0 23 8.5 43.5t21.5 37t29 29t32 20.5q15 8 32.5 14t36 10t37 6t36.5 2q41 0 76.5 -12t61 -33t40.5 -51q14 -30 14 -66q0 -34 -10 -61t-27 -51.5t-37 -47t-41 -46.5q-14 -16 -23.5 -28t-15.5 -26t-9 -31t-3 -41v-40q0 -30 5.5 -58t19 -48.5t38 -32.5t62.5 -12 q29 0 50 11t34 31.5t19.5 49.5t6.5 64v505l119 24v-532q0 -24 -2 -52t-9.5 -56t-23 -54.5t-43.5 -47t-69 -32.5t-99 -12q-54 0 -96.5 17t-71 47t-44 70t-15.5 88v78q0 25 5 46t15.5 40.5t27.5 38.5t39 42q26 26 44 45.5t28 36t15 31t5 30.5q1 18 -5.5 34t-18.5 27.5t-30 18 t-40 6.5q8 -8 13 -15t8 -12q10 -21 10 -45q0 -26 -10 -50t-27.5 -41t-40.5 -27t-50 -10q-26 0 -49.5 10t-41 27t-27.5 41t-10 50zM90 616q0 -26 17 -42.5t42 -16.5q26 0 42.5 16.5t16.5 42.5t-17 42.5t-42 16.5q-26 0 -42.5 -16.5t-16.5 -42.5z" />
<glyph unicode="&#xe03;" horiz-adv-x="760" d="M8 647q0 27 10 51t28 42t42 28.5t52 10.5q35 0 61.5 -13.5t42.5 -37.5q4 -7 7 -17.5t2 -20.5l4 6q4 4 10 11l83 73q40 -4 66.5 -16t43 -28t24.5 -35t11 -37q7 -40 -7 -76q-14 -38 -48 -72l-102 -100q-26 -26 -36 -51t-10 -53v-69q0 -30 5 -57.5t19 -48.5t39 -33t63 -12 q29 0 49.5 11t34.5 31.5t20 49.5q7 28 7 64v506l119 24v-533q0 -24 -2 -51.5t-10 -55.5t-24 -55t-43 -47t-69 -32t-100 -12q-54 0 -96.5 17t-72 46.5t-44.5 70t-15 87.5v94q0 28 6.5 50.5t19 42.5t30.5 40t42 44l105 101q7 7 13.5 18t6.5 30q0 10 -6.5 21.5t-23.5 15.5 l-135 -120q-21 -18 -45.5 -27.5t-46.5 -9.5q-27 0 -50.5 10.5t-41.5 29t-28 43t-10 51.5zM80 645q0 -26 16 -43q16 -16 42 -16t43 17t17 42q0 26 -17 42.5t-43 16.5t-42 -16.5t-16 -42.5z" />
<glyph unicode="&#xe04;" horiz-adv-x="848" d="M112 0v557q0 42 23 81.5t65.5 71.5t102 51t133.5 19q60 0 115 -15t96 -43t65 -70t24 -95v-557h-120v526q0 35 -12 63t-37 47.5t-63 29.5t-90 10q-26 0 -58 -7t-60 -22.5t-46 -40t-18 -58.5v-130q18 26 39.5 46t44.5 33t46.5 20.5t45.5 7.5q27 0 51 -10.5t42 -28.5 t28.5 -42t10.5 -51t-10.5 -51t-28.5 -42t-42 -28.5t-51 -10.5q-23 0 -44.5 8.5t-38 23.5t-27 33t-11.5 38q-10 -8 -18.5 -18t-16.5 -19.5t-13 -18t-7 -16.5v-292h-120zM348 391q0 -26 17 -42.5t42 -16.5q26 0 42.5 17t16.5 42q0 26 -17 42.5t-42 16.5q-26 0 -42.5 -16.5 t-16.5 -42.5z" />
<glyph unicode="&#xe05;" horiz-adv-x="864" d="M112 0v488q0 56 13 105t39.5 87t68 64t99.5 38l112 -92l106 91q48 -6 85 -24t63 -46.5t40 -65t14 -79.5v-566h-120v550q0 24 -2 43.5t-9 34.5t-18 26.5t-29 19.5l-130 -106l-124 101q-18 -6 -34 -19.5t-28 -34.5t-19 -49t-7 -64v-84q18 26 39.5 46t44.5 33t46.5 20.5 t45.5 7.5q27 0 51 -10.5t42 -28.5t28.5 -42t10.5 -51t-10.5 -51t-28.5 -42t-42 -28.5t-51 -10.5q-23 0 -44.5 8.5t-38.5 23.5t-27.5 34.5t-11.5 41.5q-10 -8 -19 -18.5t-16 -21.5t-12 -20t-7 -17v-292h-120zM348 391q0 -26 17 -42.5t43 -16.5t42 17t16 42q0 26 -16 43 q-16 16 -42 16t-43 -16.5t-17 -42.5z" />
<glyph unicode="&#xe06;" horiz-adv-x="868" d="M44 146q0 32 12 60t33 48t49 31t61 11h7h8v24q0 28 2 46.5t9.5 34t20.5 31.5q14 16 37 38l113 114q10 10 16 22.5t6 25t-7.5 22.5t-24.5 15l-113 -113q-26 -26 -50.5 -35t-46.5 -9q-27 0 -51 10.5t-41.5 29t-28 42.5t-10.5 52q0 27 10.5 50.5t28.5 41.5t42 29t51 11 q36 0 63 -16q26 -14 42 -40q2 -4 5 -11t5 -14l4 8q2 4 5 7.5t7 6.5l62 59q40 -4 67 -15.5t43.5 -28t24.5 -35.5t11 -37q7 -40 -7 -76q-13 -36 -47 -71l-107 -112q-8 -8 -11.5 -15.5t-6 -17.5t-3 -22t-0.5 -28v-100q24 -32 50 -55t52 -38t52 -21.5t49 -6.5q32 0 51 9t30 27.5 t14.5 47.5t3.5 68v503l120 24v-579q0 -40 -11 -77.5t-35 -65.5t-62 -45t-92 -17q-52 0 -107 20t-111 66q-8 -21 -22 -37t-32 -27t-40 -16.5t-45 -5.5q-32 0 -60.5 12t-49.5 32.5t-33 48t-12 59.5zM116 643q0 -26 17 -42.5t43 -16.5t42 17t16 42q0 26 -16 43q-16 16 -42 16 t-43 -16.5t-17 -42.5zM126 144q0 -15 6 -28t15.5 -22.5t23 -15.5t28.5 -6t28 6t23 15.5t16 23t6 27.5q0 15 -6 28.5t-16 23.5t-23 16t-28 6t-28.5 -6t-23 -16t-15.5 -23.5t-6 -28.5z" />
<glyph unicode="&#xe07;" horiz-adv-x="658" d="M13 557l113 31l160 -496h14q30 2 53 11t38 26t23 43t8 65v287q-8 -2 -17 -2t-15 -1q-24 -2 -46 7.5t-39 27t-27 41t-10 51.5t11 52t29 42t42.5 28t52.5 10q30 0 55.5 -9t43.5 -29t28.5 -50t10.5 -72v-378q0 -23 -3.5 -50.5t-13.5 -55.5t-27.5 -54t-45.5 -46t-68 -32 t-95 -12q-8 0 -20 0.5t-25.5 1.5t-26.5 3q-13 3 -22 5zM343 648q0 -26 16.5 -42t42.5 -16t42 16q17 16 17 42t-16.5 43t-42.5 17t-42.5 -17t-16.5 -43z" />
<glyph unicode="&#xe08;" horiz-adv-x="738" d="M10 671q41 24 85.5 44.5t89.5 34.5t90 22t86 8q38 0 76.5 -7.5t71.5 -22.5t59 -37q24 -23 36 -51q10 -26 14 -57t4 -69v-301q0 -23 -1.5 -50t-8 -54t-19.5 -52t-36.5 -45t-59.5 -31q-35 -11 -87 -11q-8 0 -19 1t-23 2.5t-24 4.5l-20 4l-57 276q-10 -4 -21 -6 q-12 -2 -23 -2q-26 -1 -49.5 7.5t-41.5 25.5t-28.5 40.5t-10.5 52.5q0 28 10.5 52t29 42t43.5 28q24 10 52 12q25 2 46.5 -4t38.5 -20t29 -34t17 -48l65 -335q29 2 44.5 13.5t23.5 31t9 46t1 58.5v284q0 33 -6 60.5t-23.5 47.5t-48.5 32t-80 12q-20 0 -44 -4t-50 -11 t-52 -15.5t-50 -18.5t-44 -20.5t-34 -20.5zM167 398q0 -26 16.5 -42.5t42.5 -16.5t42.5 16.5t16.5 42.5t-16.5 42.5t-42.5 16.5t-42.5 -16.5t-16.5 -42.5z" />
<glyph unicode="&#xe09;" horiz-adv-x="847" d="M16 656q102 66 204 96.5t206 30.5q136 0 205 -67t69 -203v-227q22 -6 40 -19.5t30.5 -32t19.5 -40.5q7 -24 7 -48q0 -32 -12 -59.5t-33 -48t-49.5 -32.5t-60.5 -12q-24 0 -45 5t-39 16t-32 27q-13 14 -21 36q-7 18 -8 41t9 49q-50 -28 -101 -71.5t-103 -96.5h-116v278 q-8 -2 -17 -3t-15 -1q-24 -2 -46 7t-39 26t-27 40.5t-10 51.5t11 51.5t29 41.5t42.5 28t52.5 10t53.5 -8.5t44 -28t29.5 -52.5t11 -81v-242q40 33 77.5 61.5t72.5 50.5t67 37.5t58 22.5v204q0 38 -6 71t-25 58t-53.5 39t-90.5 14q-36 0 -78 -7t-85.5 -21t-87.5 -34 q-43 -22 -83 -48zM106 399q0 -26 17 -42.5t43 -16.5t42 17t16 42q0 26 -16 43q-16 16 -42 16t-43 -16.5t-17 -42.5zM570 144q0 -15 5.5 -28t15 -22.5t23.5 -15.5t28 -6q15 0 28.5 6t23.5 15.5t15.5 23t5.5 27.5q0 15 -5.5 28.5t-15.5 23.5t-23 16t-29 6q-15 0 -28.5 -6 t-23 -16t-15 -23.5t-5.5 -28.5z" />
<glyph unicode="&#xe0a;" horiz-adv-x="753" d="M21 616q0 23 8.5 43.5t21.5 37t29 29t32 20.5q15 8 32.5 14t36 10t37 6t36.5 2q54 0 97.5 -20t68.5 -56q8 0 15 1t9 1q32 4 58 16t47 33.5t38 53t31 75.5l106 -46q-6 -22 -17 -47t-29 -50t-44 -46.5t-62 -37.5q18 -14 31 -34.5t20.5 -44.5t11 -51.5t3.5 -56.5v-222 q0 -24 -2.5 -52t-11 -56t-24.5 -54.5t-43.5 -47t-69 -32.5t-99.5 -12q-54 0 -96.5 17t-71 47t-44 70t-15.5 88v78q0 25 5 46t15.5 40.5t27.5 38.5t39 42q26 26 45 45.5t30 36t16 31t7 30.5q1 18 -5.5 34t-18.5 27t-31 17.5t-41 5.5q4 -4 8 -9t6 -9q13 -24 13 -52 q0 -26 -10 -50t-27.5 -41t-40.5 -27t-50 -10q-26 0 -49.5 10t-41 27t-27.5 41t-10 50zM91 616q0 -26 16.5 -42.5t42.5 -16.5t42.5 16.5t16.5 42.5t-16.5 42.5t-42.5 16.5t-42.5 -16.5t-16.5 -42.5zM280 244q0 -30 5.5 -58t19 -48.5t38 -32.5t62.5 -12q29 0 50 11t35 31.5 t21 49.5t7 64v213q0 28 -4 55t-12 48t-21 33t-33 12h-2q-1 -33 -11.5 -59.5t-27 -49.5t-36.5 -45t-40 -46q-14 -16 -23.5 -28t-15.5 -26t-9 -31t-3 -41v-40z" />
<glyph unicode="&#xe0b;" horiz-adv-x="792" d="M8 647q0 27 10 51t28 42t42 28.5t52 10.5q35 0 61.5 -13.5t42.5 -37.5q4 -7 7 -17.5t2 -20.5l4 6t10 11l83 73q29 -3 50.5 -10t37.5 -17.5t27 -22.5t17 -26h1q32 4 58 16t47 33.5t37.5 53t30.5 75.5l106 -46q-6 -22 -17 -47t-29 -50t-44 -46.5t-62 -37.5q18 -14 31 -34.5 t21 -44.5t11 -51.5t3 -56.5v-222q0 -24 -3 -52t-13 -56t-27.5 -54.5t-46.5 -47t-71.5 -32.5t-100.5 -12q-54 0 -99 17t-76.5 46.5t-49 70t-17.5 87.5v94q0 28 6.5 50.5t19 42.5t30.5 40t42 44l105 101q7 7 13.5 18t6.5 30q0 10 -6.5 21.5t-23.5 15.5l-135 -120 q-21 -18 -45.5 -27.5t-46.5 -9.5q-27 0 -50.5 10.5t-41.5 29t-28 43t-10 51.5zM80 645q0 -26 16 -43q16 -16 42 -16t43 17t17 42q0 26 -17 42.5t-43 16.5t-42 -16.5t-16 -42.5zM292 243q0 -30 7 -57.5t24 -48.5t43.5 -33t64.5 -12q29 0 52 11t39.5 32t25 50t8.5 64v213 q0 27 -3 52.5t-10.5 46t-19.5 34t-29 15.5q-10 -48 -54 -94l-102 -100q-26 -26 -36 -51t-10 -53v-69z" />
<glyph unicode="&#xe0c;" horiz-adv-x="1238" d="M44 636q44 32 94 58t101 45t102 30t97 11q52 0 97 -7.5t80.5 -23.5t60.5 -41.5t39 -63.5q4 -13 7.5 -30.5t5 -36t2 -38t0.5 -35.5v-126v-158q26 -33 50 -56t46 -37.5t44 -21t46 -6.5q30 0 48 8.5t27.5 27.5t12.5 47t3 68v504l119 24v-579q0 -40 -9 -77.5t-31.5 -65.5 t-59 -45t-91.5 -17q-26 0 -50 5t-47.5 16t-48.5 29t-52 43q-8 -22 -22.5 -39.5t-33 -29.5t-40.5 -18t-45 -6q-32 0 -60 11.5t-49 32t-33 48.5t-12 60t12 59.5t32.5 47.5t49 31.5t60.5 11.5h8q4 0 7 -1v78v115q0 51 -7 85.5t-27 55.5t-56.5 30t-94.5 9q-31 0 -62.5 -5 t-60.5 -12.5t-54.5 -18t-46.5 -22.5q26 -30 37 -56t11 -54v-256q8 2 16.5 3t15.5 1q24 2 46 -7t38.5 -26t26.5 -41t10 -51q0 -28 -10.5 -51.5t-29 -41.5t-43 -28t-52.5 -10t-53 8.5t-44 28t-30 52.5t-11 81v304q0 26 -5.5 48t-19.5 44q-12 19 -27.5 38.5t-33.5 39.5z M210 123q0 -26 17 -42.5t43 -16.5t42 17t16 42q0 26 -16 43q-16 16 -42 16t-43 -16.5t-17 -42.5zM523 144q0 -15 5.5 -28t15.5 -22.5t23.5 -15.5t28.5 -6t28.5 6t23 15.5t15 23t5.5 27.5q0 15 -5.5 28.5t-15 23.5t-23 16t-28.5 6t-28.5 -6t-23.5 -16t-15.5 -23.5t-5.5 -28.5 z" />
<glyph unicode="&#xe0d;" horiz-adv-x="1189" d="M44 636q44 32 92 58t98 45t100 30t96 11q52 0 94.5 -7.5t75 -23.5t55.5 -41.5t37 -63.5q4 -13 7 -30.5t5 -36t2 -38v-35.5v-262q0 -30 6.5 -57.5t22 -48t40.5 -32.5t64 -12q30 0 52 11t37 31t22.5 49t7.5 65v508l120 23v-531q0 -24 -3 -52t-12 -56t-26 -54.5t-45 -47 t-70 -32.5t-100 -12q-54 0 -97.5 17t-74 47t-47 70t-16.5 87v273q0 51 -4.5 85.5t-22 55.5t-51.5 30q-35 9 -93 9q-31 0 -60.5 -5t-56.5 -12.5t-51.5 -18t-45.5 -22.5q26 -30 37 -56t11 -54v-256q8 2 16.5 3t15.5 1q24 2 46 -7t38.5 -26t26.5 -41t10 -51q0 -28 -10.5 -51.5 t-29 -41.5t-43 -28t-52.5 -10t-53 8.5t-44 28t-30 52.5t-11 81v304q0 26 -5.5 48t-19.5 44q-12 19 -27.5 38.5t-33.5 39.5zM211 123q0 -26 16.5 -42.5t42.5 -16.5t42.5 17t16.5 42q0 26 -16.5 42.5t-42.5 16.5t-42.5 -16.5t-16.5 -42.5zM576 -153q0 -14 3 -28.5t9 -27.5 t13.5 -24t15.5 -17q14 -12 32 -21t37.5 -15t38.5 -8.5t35 -2.5q62 0 113 14.5t92 36.5t72 52t55 62l-70 56q-10 -16 -30 -38t-49 -42t-66 -35t-81 -18q18 13 25 31t7 34q0 26 -10 46t-27 35t-39.5 23t-46.5 8q-26 0 -49.5 -8.5t-41.5 -25t-28 -39t-10 -48.5zM645 -152 q0 12 4.5 23t12.5 18.5t18 12t22 4.5t23 -4.5t18.5 -12t12 -18.5t4.5 -23t-4.5 -22t-12 -18t-18.5 -12.5t-23 -4.5t-22 4.5t-18 12.5t-12.5 18t-4.5 22z" />
<glyph unicode="&#xe0e;" horiz-adv-x="853" d="M32 124q0 28 10 50.5t27 39t39 25.5t46 9q7 0 13.5 -1t14.5 -3v222q0 26 -10 48t-28 40l-76 82q44 32 92.5 58t99 45t101.5 30t97 11q52 0 95 -7.5t76.5 -23.5t57 -41.5t37.5 -63.5q4 -13 8 -30.5t6 -36t3 -38t1 -35.5v-607q0 -31 -8.5 -60.5t-27 -53t-48.5 -38.5 t-72 -17l-52 1q-14 14 -31 32t-38 37q-31 -34 -69 -56t-84 -22q-30 0 -57 7t-47 22t-31 37t-11 50t13 50.5t33.5 37.5t47 22.5t52.5 7.5q22 0 42.5 -4t40 -12t37.5 -18t34 -22q10 14 18 28q6 14 12 26l49 -28q-7 -16 -15 -32t-18 -31l38 -33h36q6 0 13 3t12 9t8 16 q3 12 3 28v604q0 51 -6 85.5t-24 55.5t-54 30t-94 9q-31 0 -61.5 -5t-58.5 -12.5t-53 -18t-46 -22.5l24 -24q14 -14 25.5 -29.5t19.5 -34t8 -40.5v-316q0 -48 -11 -80t-30 -52.5t-43.5 -29.5t-52.5 -9t-52 10t-42 27.5t-28.5 40.5t-10.5 51zM98 122q0 -26 17 -42.5t43 -16.5 t42 16.5t16 42.5t-16 42q-16 17 -42 17t-43 -16.5t-17 -42.5zM248 -164q0 -10 6 -19t15 -15t20 -9t23 -3q31 1 57 14.5t48 33.5q-27 20 -54.5 33t-54.5 13q-10 0 -21 -2.5t-19.5 -8t-14 -15t-5.5 -22.5z" />
<glyph unicode="&#xe0f;" horiz-adv-x="853" d="M32 124q0 28 10 50.5t27 39t39 25.5t46 9q7 0 13.5 -1t14.5 -3v222q0 26 -10 48t-28 40l-76 82q44 32 92.5 58t99 45t101.5 30t97 11q52 0 95 -7.5t76.5 -23.5t57 -41.5t37.5 -63.5q4 -13 7.5 -30.5t5.5 -36t3 -38t1 -35.5l1 -615q0 -31 -5 -60t-21 -52t-46.5 -36 t-82.5 -13l-81 76l-78 -82q-4 4 -14 13t-22 19t-24 21t-22 19q-28 -29 -62 -47.5t-73 -20.5q-26 -1 -50.5 5t-44.5 19.5t-32 33.5t-12 47q0 22 9 43.5t27 37.5t43 26t58 10q18 0 35 -5t32.5 -12t30.5 -16t29 -19l10 -8q9 12 17 25.5t15 26.5l48 -32l-16 -28t-17 -28 q10 -8 19.5 -15t13.5 -11l80 83l90 -78q16 4 21 12.5t5 27.5v617q0 51 -6 85.5t-24.5 55.5t-53.5 30q-36 9 -94 9q-31 0 -61.5 -5t-58.5 -12.5t-53 -18t-46 -22.5l24 -24q14 -14 25.5 -29.5t19.5 -34t8 -40.5v-316q0 -48 -11 -80t-30 -52.5t-43.5 -29.5t-52.5 -9t-52 10 t-42 27.5t-28.5 40.5t-10.5 51zM98 122q0 -26 17 -42.5t43 -16.5t42 16.5t16 42.5t-16 42q-16 17 -42 17t-43 -16.5t-17 -42.5zM151 -164q0 -10 5 -18t12.5 -12.5t16.5 -7t17 -2.5q27 0 50.5 10t44.5 27q-32 23 -53.5 33t-37.5 10q-23 0 -39 -10t-16 -30z" />
<glyph unicode="&#xe10;" horiz-adv-x="738" d="M10 671q41 24 85.5 44.5t89.5 34.5t89 22t86 8q32 0 65 -5.5t63 -16.5q26 6 50.5 18t47 27.5t42.5 34t35 36.5l85 -72q-13 -14 -30.5 -29t-38.5 -30t-44 -28t-48 -23q10 -14 17 -30q10 -26 13.5 -57t3.5 -69v-301q0 -24 -1.5 -50.5t-7.5 -53.5t-19 -52t-37 -45t-60 -31 t-87 -11q-8 0 -18.5 1t-22.5 2.5t-24 4t-21 4.5l-57 278q-10 -4 -21 -6t-23 -2q-26 -1 -49 7.5t-41 24.5t-29 39.5t-11 52.5q0 28 11 52t29 42t42 28q25 10 53 12q25 2 47 -4t39 -20t29 -34q10 -20 16 -48l65 -335q29 2 45 13.5t23.5 31t9 46t1.5 58.5v284q0 33 -6 60.5 t-24 47.5t-49 32t-79 12q-20 0 -44.5 -4t-50 -11t-52 -15.5t-50 -18.5t-44 -20.5t-34.5 -20.5zM29 -294q0 20 8.5 39t24.5 34.5t39 25t52 9.5q20 0 37 -5t31.5 -12.5t27.5 -17t24 -17.5q6 10 11.5 22t9.5 24l54 -29q-5 -12 -11.5 -26.5t-14.5 -28.5l58 -46h69q16 0 26.5 5 t16.5 11.5t9 14.5t2 15q-6 0 -16.5 -2t-25.5 2q-17 4 -32 14t-26 24t-17.5 31t-6.5 37q0 28 10 51t27 40t40 25q22 9 48 9t48.5 -8.5t39 -25.5t25.5 -43t9 -62v-42.5t-2.5 -41.5t-8 -39t-14.5 -34t-24.5 -27t-35.5 -20t-44.5 -12t-50.5 -4h-82l-84 66q-12 -14 -27 -27 t-32 -22t-37 -13q-19 -4 -41 -4q-18 0 -37.5 6.5t-36.5 20t-28.5 34t-11.5 49.5zM102 -298q0 -9 5 -16.5t13 -12.5t16 -8t16 -3q20 0 40 10t38 28l-1 1q-10 7 -20.5 15t-21 15t-21 11t-20.5 4q-18 0 -31 -12t-13 -32zM167 398q0 -26 16.5 -42.5t42.5 -16.5t42.5 16.5 t16.5 42.5t-16.5 42.5t-42.5 16.5t-42.5 -16.5t-16.5 -42.5zM446 -166q0 -24 16 -40t40 -16t40 16t16 40t-16 40t-40 16t-40 -16t-16 -40z" />
<glyph unicode="&#xe11;" horiz-adv-x="936" d="M6 646q0 28 11 52t29 42t43 28.5t53 10.5q31 0 59 -15q29 -16 45 -40q3 -4 5 -11l4 -14q1 3 3 6q2 6 8 13l56 63q27 -6 47.5 -15t34.5 -20.5t24 -24.5q8 -13 14 -27q45 44 91.5 66.5t93.5 22.5q48 0 85 -13.5t62 -38.5t38 -61q12 -34 12 -80v-590h-119v540 q0 26 -2.5 50.5t-11.5 43t-28 30.5q-19 10 -51 10q-26 0 -54 -16t-55 -43t-50.5 -61.5t-42 -71.5t-28.5 -74.5t-10 -68.5v-339h-120v322q0 30 5.5 57.5t18 57t31.5 64.5t47 80q16 28 11 50t-29 32l-101 -111q-16 -18 -40.5 -30t-52.5 -12t-53 11t-43 29t-29 43t-11 53z M80 645q0 -26 17 -42.5t42 -16.5q26 0 42.5 17t16.5 42q0 26 -17 42.5t-42 16.5q-26 0 -42.5 -16.5t-16.5 -42.5z" />
<glyph unicode="&#xe12;" horiz-adv-x="1294" d="M112 0v492q0 121 54 194.5t166 97.5l142 -94l128 93q47 -8 85.5 -24.5t66 -43t42.5 -62t15 -79.5v-347q26 -38 52.5 -63t49.5 -39.5t42.5 -20t31.5 -5.5q24 0 39 8.5t23.5 27.5t11 47t2.5 68v504l119 24v-579q0 -40 -9.5 -77.5t-31 -65.5t-56.5 -45t-84 -17q-48 0 -92 26 t-91 71q-8 -22 -22 -40.5t-33 -31t-41 -19t-45 -6.5q-32 0 -60.5 11.5t-49.5 32t-33 48.5t-12 60t12 59.5t33 47.5t49 31.5t61 11.5h7q4 0 8 -1v260q0 28 -5.5 47.5t-15 33.5t-22.5 23t-27 16l-149 -99l-153 98q-18 -6 -33.5 -19t-28 -33t-19.5 -50t-7 -68v-382q54 30 96 73 t72 91q-24 0 -45 10t-37 26t-25 38t-9 47q0 28 10 52.5t29 42.5t43 29t52 11t52 -11t43 -29t29 -43t10 -52q0 -14 -2 -31.5t-6 -35.5q-8 -27 -30 -66.5t-62 -85.5t-100 -94q-58 -49 -140 -94h-100zM358 407q0 -26 16 -43q16 -16 42 -16t43 17t17 42q0 26 -17 42.5t-43 16.5 t-42 -16.5t-16 -42.5zM604 144q0 -15 6 -28.5t15.5 -23t23 -15t28.5 -5.5t28 5.5t23 15t16 23t6 28.5t-6 28.5t-16 23.5t-23 15.5t-28 5.5t-28.5 -5.5t-23 -15.5t-15.5 -23.5t-6 -28.5z" />
<glyph unicode="&#xe13;" horiz-adv-x="1240" d="M44 636q44 32 92 58t98 45t100 30t96 11q52 0 94.5 -7.5t75 -23.5t55.5 -41.5t37 -63.5q4 -13 7 -30.5t5 -36t2 -38v-35.5v-386q80 70 146 114q68 44 122 58v466l119 23v-493q22 -6 39.5 -19.5t30.5 -32t20 -40.5q7 -24 7 -48q0 -32 -12 -59.5t-33 -48t-49 -32.5t-60 -12 q-24 0 -45 5t-39 16t-32 27q-14 14 -22 36q-7 18 -8.5 41t8.5 49q-50 -28 -96 -72q-48 -43 -100 -96h-115v488q0 51 -4.5 85.5t-22 55.5t-51.5 30q-35 9 -93 9q-31 0 -60.5 -5t-56.5 -12.5t-51.5 -18t-45.5 -22.5q26 -30 37 -56t11 -54v-256q8 2 16.5 3t15.5 1q24 2 46 -7 t38.5 -26t26.5 -41t10 -51q0 -28 -10.5 -51.5t-29 -41.5t-43 -28t-52.5 -10t-53 9.5t-44 29t-30 48.5t-11 69v318q0 26 -5.5 48t-19.5 44q-12 19 -27.5 38.5t-33.5 39.5zM211 123q0 -26 16.5 -42.5t42.5 -16.5t42.5 17t16.5 42q0 26 -16.5 42.5t-42.5 16.5t-42.5 -16.5 t-16.5 -42.5zM962 144q0 -15 6 -28t16 -22.5t23 -15.5t29 -6q15 0 28 6t22.5 15.5t15.5 23t6 27.5q0 15 -6 28.5t-15.5 23.5t-23 16t-27.5 6q-15 0 -28.5 -6t-23.5 -16t-16 -23.5t-6 -28.5z" />
<glyph unicode="&#xe14;" horiz-adv-x="867" d="M112 0v558q0 42 25 82t69 71t105 50.5t135 19.5q60 0 116 -14.5t99 -43.5t69 -70q24 -41 24 -95v-558h-119v527q0 35 -13.5 64t-40.5 49t-66 31t-91 11q-18 0 -39 -3t-42.5 -10.5t-41.5 -18.5t-35.5 -26t-24.5 -33.5t-9 -42.5v-423q25 15 50.5 33t48.5 38.5t43 41.5 q20 22 33 42q2 2 3.5 4t5.5 6q-2 -2 -8 -3t-10 -1q-24 2 -44 12t-35 26t-23 37t-8 46q0 28 11 51.5t29 41t42.5 27t52.5 9.5t52.5 -9.5t42.5 -27t29 -41.5t11 -51q0 -14 -2 -31.5t-8 -35.5q-8 -27 -30.5 -66.5t-63 -85.5t-100.5 -94q-60 -49 -142 -94h-100zM362 406 q0 -26 17 -42t43 -16t42 16t16 42t-16 43t-42 17t-43 -17t-17 -43z" />
<glyph unicode="&#xe15;" horiz-adv-x="882" d="M112 0v488q0 56 13 105t39.5 87t68 64t99.5 38l124 -92l112 91q48 -6 85 -24t63 -46.5t40 -65t14 -79.5v-566h-120v550q0 24 -2 43.5t-9 34.5t-18 26.5t-29 19.5l-136 -106l-136 101q-18 -6 -34 -19.5t-28 -34.5t-19 -49t-7 -64v-377q24 14 48 28.5t47.5 32t45 37 t38.5 40.5l5.5 5.5t6.5 5.5q-3 -1 -8 -1.5t-9 -0.5q-25 0 -46.5 9.5t-37.5 26t-25 38.5t-9 46q0 28 11 51.5t29 41t42.5 27.5t52.5 10t52.5 -10t42.5 -27.5t29 -41t11 -51.5q0 -14 -2 -31t-8 -35q-8 -27 -30.5 -64.5t-63 -80.5t-100.5 -89q-60 -47 -142 -92h-100zM362 392 q0 -26 17 -42t43 -16t42 16t16 42t-16 43t-42 17t-43 -17t-17 -43z" />
<glyph unicode="&#xe16;" horiz-adv-x="841" d="M44 636q44 32 94 58t102 45t103.5 30t97.5 11q52 0 96.5 -7.5t79.5 -23.5t59.5 -41.5t38.5 -63.5q4 -13 7.5 -30.5t4.5 -36t2 -38t1 -35.5v-504h-120v488q0 51 -6.5 85.5t-26 55.5t-55.5 30t-94 9q-31 0 -62.5 -5t-60.5 -12.5t-55.5 -18t-47.5 -22.5q26 -30 37 -56 t11 -54v-256q8 2 16.5 3t15.5 1q24 2 46 -7t38.5 -26t26.5 -41t10 -51q0 -28 -10.5 -51.5t-29 -41.5t-43 -28t-52.5 -10t-53 9t-44 27t-30 45t-11 63v330q0 26 -5.5 48t-19.5 44q-12 19 -27.5 38.5t-33.5 39.5zM212 123q0 -26 16 -43q16 -16 42 -16t43 17t17 42 q0 26 -17 42.5t-43 16.5t-42 -16.5t-16 -42.5z" />
<glyph unicode="&#xe17;" horiz-adv-x="876" d="M30 644q0 28 11 52.5t29 43t43.5 29t54.5 10.5q28 0 51.5 -7.5t41 -23t28 -38t10.5 -52.5l1 -96q36 42 72 81t73 69.5t76 48.5t81 18q46 0 77 -13.5t50 -39.5t27 -64.5t8 -87.5v-574h-119v536q0 27 -1.5 50.5t-7.5 40.5t-19 27t-35 10q-23 0 -50.5 -14t-55.5 -35.5 t-55 -48.5t-51 -53.5t-42.5 -49.5t-28.5 -37l-1 -426h-119l1 514q-3 -1 -6.5 -1.5t-9.5 -0.5q-30 0 -54 10t-42 28t-28 42t-10 52zM104 645q0 -26 17 -42.5t43 -16.5t42 17t16 42q0 26 -16 43q-16 16 -42 16t-43 -16.5t-17 -42.5z" />
<glyph unicode="&#xe18;" horiz-adv-x="807" d="M104 513q0 61 13 111t46 85t88 55t137 20q84 0 162 -24t155 -74l-61 -88q-24 15 -51 29t-57.5 25t-63 18.5t-66.5 8.5q-16 0 -33.5 -0.5t-34 -3.5t-32.5 -8q-14 -5 -26 -12q-26 -16 -39 -42t-15 -58l288 -34q48 -6 82 -15.5t55 -29t30.5 -52t9.5 -84.5v-122 q-2 -51 -23.5 -92.5t-57.5 -71.5t-86 -47t-109 -17q-78 0 -135.5 17.5t-95.5 48t-57.5 72t-19.5 90.5v166l120 26l-1 -189q0 -32 16 -56.5t41 -40.5t55 -24q28 -8 56 -8q44 0 77 11t55.5 30t34 46t11.5 59v98q0 18 -2 32t-10 24.5t-23.5 17.5t-43.5 10l-389 42v51z" />
<glyph unicode="&#xe19;" horiz-adv-x="884" d="M30 648q0 28 10.5 52t29 42t42.5 28t52 10t53.5 -9t44 -28t29.5 -49t11 -71v-509q40 34 84 63t87 52.5t81 39t64 21.5v464l120 28v-496q22 -6 40 -19.5t30.5 -32t19.5 -40.5q7 -24 7 -48q0 -32 -12 -59.5t-33 -48t-49.5 -32.5t-60.5 -12q-24 0 -44.5 5.5t-38 16 t-31.5 26.5t-22 38q-4 10 -6 23t-3 25.5t1 24.5t6 22q-38 -14 -72 -34.5t-64 -44t-57 -48.5t-51 -48h-115v528q-8 -2 -16.5 -3t-15.5 -2q-24 -2 -45.5 7.5t-38.5 26.5t-27 40t-10 51zM104 649q0 -26 16 -43q16 -16 42 -16t43 17t17 42q0 26 -17 42.5t-43 16.5t-42 -16.5 t-16 -42.5zM608 145q0 -15 6 -28t15.5 -23t23 -16t28.5 -6t28 6t23 16t16 23t6 28t-6 28.5t-16 23t-23 15.5t-28 6t-28.5 -6t-23 -15.5t-15.5 -23t-6 -28.5z" />
<glyph unicode="&#xe1a;" horiz-adv-x="869" d="M30 648q0 28 10.5 52t29 42t42.5 28t52 10t53 -10t44 -28.5t30 -46.5t11 -65v-393q0 -32 11 -58.5t32 -46t54 -30.5t77 -11q28 0 56 7.5t52 23.5t39 40t15 58v537l119 23v-568q0 -42 -19.5 -81.5t-57.5 -71t-94 -50.5t-130 -19q-60 0 -110 16t-86 45t-57 70t-21 91v316 q-8 -2 -16 -3t-15 -2q-24 -2 -45.5 7.5t-38.5 26.5t-27 40t-10 51zM104 649q0 -26 17 -42.5t42 -16.5q26 0 42.5 17t16.5 42q0 26 -17 42.5t-42 16.5q-26 0 -42.5 -16.5t-16.5 -42.5z" />
<glyph unicode="&#xe1b;" horiz-adv-x="879" d="M30 648q0 28 10.5 52t29 42t42.5 28t52 10t53 -10t44 -28.5t30 -46.5t11 -65v-393q0 -32 11.5 -58.5t34 -46t56 -30.5t77.5 -11q28 0 57 7.5t53.5 23.5t40.5 40t16 58v885l119 23v-916q0 -42 -20.5 -81.5t-59.5 -71t-96 -50.5t-131 -19q-60 0 -110 16t-87.5 45t-59 70 t-21.5 91v316q-8 -2 -16 -3t-15 -2q-24 -2 -45.5 7.5t-38.5 26.5t-27 40t-10 51zM104 649q0 -26 17 -42.5t42 -16.5q26 0 42.5 17t16.5 42q0 26 -17 42.5t-42 16.5q-26 0 -42.5 -16.5t-16.5 -42.5z" />
<glyph unicode="&#xe1c;" horiz-adv-x="868" d="M112 630q0 37 11 65t30 46.5t44 28.5t53 10t52 -10t43 -28t29 -42t10 -52t-10 -51t-26.5 -40t-38 -26t-45.5 -8q-7 0 -16 1l-16 4v-314q0 -22 5.5 -39t14.5 -30t20.5 -22t22.5 -14l139 177l136 -176q13 5 24.5 13t21 21.5t15 34.5t5.5 51v526l120 24v-535 q0 -58 -11.5 -101t-36.5 -73.5t-65 -49.5q-39 -19 -97 -29l-112 144l-114 -144q-49 6 -87.5 23t-65 43.5t-40.5 64t-14 84.5zM192 649q0 -26 17 -42.5t43 -16.5t42 17t16 42q0 26 -16 43q-16 16 -42 16t-43 -16.5t-17 -42.5z" />
<glyph unicode="&#xe1d;" horiz-adv-x="872" d="M112 630q0 37 11 65t30 46.5t44 28.5t53 10t52 -10t43 -28t29 -42t10 -52t-10 -51t-26.5 -40t-38 -26t-45.5 -8q-7 0 -16 1l-16 4v-314q0 -22 5.5 -39t14.5 -30t20.5 -22t22.5 -14l141 177l138 -176q13 5 25.5 13t21.5 21.5t15 34.5t6 51v876l119 22v-883 q0 -58 -11.5 -101t-36.5 -73.5t-65 -49.5t-98 -29l-114 144l-116 -144q-49 6 -87.5 23t-65 43.5t-40.5 64t-14 84.5zM192 649q0 -26 17 -42.5t43 -16.5t42 17t16 42q0 26 -16 43q-16 16 -42 16t-43 -16.5t-17 -42.5z" />
<glyph unicode="&#xe1e;" horiz-adv-x="964" d="M30 648q0 28 10.5 52t29 42t42.5 28t52 10t52.5 -10t42 -28.5t28 -46.5t10.5 -65v-284q0 -6 -0.5 -18.5t-1.5 -28t-1.5 -32.5t-1.5 -32.5t-2 -28.5q-2 -12 -2 -19q2 10 6 26.5t9 35.5t10.5 40t11 41t10.5 38t10 30l128 348l79 32l138 -380l10 -30t11 -38t11 -41t10.5 -40 t8 -35t6.5 -27q-1 6 -2 19t-2 28.5t-1.5 32.5t-1 32.5t-1.5 28t-1 18.5v410l114 24v-780h-118l-178 482q-6 16 -13 36.5t-13 39.5q-8 22 -14 45q-6 -23 -12 -45q-6 -19 -12 -39.5t-12 -36.5l-178 -482h-119l-1 528q-8 -2 -15 -3t-16 -2q-24 -1 -45.5 8t-38.5 26t-27 40 t-10 51zM104 648q0 -26 16 -42t42 -16t43 16t17 42t-17 43t-43 17t-42 -17t-16 -43z" />
<glyph unicode="&#xe1f;" horiz-adv-x="964" d="M30 648q0 28 10.5 52t29 42t42.5 28t52 10t52.5 -10t42 -28.5t28 -46.5t10.5 -65v-284q0 -6 -0.5 -18.5t-1.5 -28t-1.5 -32.5t-1.5 -32.5t-2 -28.5q-2 -12 -2 -19q2 10 6 26.5t9 35.5t10.5 40t11 41t10.5 38t10 30l128 348l79 32l138 -380l10 -30t11 -38t11 -41t10.5 -40 t8 -35t6.5 -27q-1 6 -2 19t-2 28.5t-1.5 32.5t-1 32.5t-1.5 28t-1 18.5v760l114 23v-1129h-118l-178 482q-6 16 -13 36.5t-13 39.5q-8 22 -14 45q-6 -23 -12 -45q-6 -19 -12 -39.5t-12 -36.5l-178 -482h-119l-1 528q-8 -2 -15 -3t-16 -2q-24 -1 -45.5 8t-38.5 26t-27 40 t-10 51zM104 648q0 -26 16 -42t42 -16t43 16t17 42t-17 43t-43 17t-42 -17t-16 -43z" />
<glyph unicode="&#xe20;" horiz-adv-x="853" d="M32 124q0 28 10 50.5t27 39t39 25.5t46 9q7 0 13.5 -1t14.5 -3v222q0 26 -10 48t-28 40l-76 82q44 32 92.5 58t99 45t101.5 30t97 11q52 0 95 -7.5t76.5 -23.5t57 -41.5t37.5 -63.5q4 -13 8 -30.5t6 -36t3 -38t1 -35.5v-504h-120v488q0 51 -6 85.5t-24 55.5t-54 30t-94 9 q-31 0 -61.5 -5t-58.5 -12.5t-53 -18t-46 -22.5l24 -24q14 -14 25.5 -29.5t19.5 -34t8 -40.5v-316q0 -48 -11 -80t-30 -52.5t-43.5 -29.5t-52.5 -9t-52 10t-42 27.5t-28.5 40.5t-10.5 51zM99 122q0 -26 16.5 -42t42.5 -16t42 16q17 16 17 42t-16.5 43t-42.5 17t-42.5 -17 t-16.5 -43z" />
<glyph unicode="&#xe21;" horiz-adv-x="875" d="M52 146q0 32 12 60t32.5 48t49 31t60.5 11h8h7v232q-8 -2 -16.5 -3t-14.5 -2q-24 -2 -46 7.5t-39 26.5t-27 40t-10 51t11 52t29 42t42.5 28t52.5 10t53 -10t43.5 -28.5t29.5 -46.5t11 -65v-410q24 -32 50 -55t52.5 -38t52 -21.5t49.5 -6.5q32 0 51 9t30 27.5t15 47.5 t4 68v503l119 24v-579q0 -40 -10.5 -77.5t-34.5 -65.5t-62 -45t-93 -17q-52 0 -107.5 20t-110.5 66q-8 -21 -22.5 -37t-32.5 -27t-39.5 -16.5t-44.5 -5.5q-32 0 -60 12t-49 32.5t-33 48t-12 59.5zM133 144q0 -15 5.5 -28t15.5 -22.5t23.5 -15.5t28.5 -6t28.5 6t23 15.5 t15 23t5.5 27.5q0 15 -5.5 28.5t-15 23.5t-23 16t-28.5 6t-28.5 -6t-23.5 -16t-15.5 -23.5t-5.5 -28.5zM142 648q0 -26 17 -42t43 -16t42 16t16 42t-16 43t-42 17t-43 -17t-17 -43z" />
<glyph unicode="&#xe22;" horiz-adv-x="801" d="M74 224q0 29 7 54.5t20 47t30 38t38 28.5q-22 15 -39.5 34.5t-29 42t-17.5 46t-6 47.5q0 51 14.5 91t40 68t60 42.5t74.5 14.5q28 0 53 -10t43.5 -28.5t29.5 -43t11 -52.5t-10 -52t-27.5 -42.5t-41.5 -29.5q-22 -10 -50 -10q-8 0 -19 2t-22.5 6.5t-23 12t-19.5 19.5 q4 -32 17 -53t31.5 -34t41 -19t46.5 -6l62 2l-20 -99l-33 1q-66 0 -103 -27t-37 -83q0 -31 14.5 -57.5t40 -45.5t62 -30.5t80.5 -11.5q34 0 66 7.5t57 24.5t39.5 43t14.5 64v530l120 23v-555q0 -54 -18.5 -97t-57.5 -74t-99 -47t-143 -16q-40 0 -78 7.5t-71 21.5t-60.5 34.5 t-46.5 46.5t-30 57t-11 67zM208 645q0 -26 17 -42.5t43 -16.5t42 17t16 42q0 26 -16 43q-16 16 -42 16t-43 -16.5t-17 -42.5z" />
<glyph unicode="&#xe23;" horiz-adv-x="681" d="M22 531q0 12 1 27t3 31q8 52 33 88.5t62 59t85 33.5q46 10 100 10q80 0 160 -24t158 -68l-48 -92q-34 18 -66 32.5t-65 24.5t-67 15.5t-73 6.5q-62 1 -98.5 -18t-53.5 -62q-2 -4 -2.5 -14.5t-2.5 -18.5l116 -16l116 -16q40 -5 69 -13.5t48.5 -27t29 -51t9.5 -84.5v-202 q0 -42 -10 -73t-28.5 -50t-44 -28t-55.5 -9q-28 0 -52 10t-43 27.5t-29 41t-10 51.5t10 52t26.5 41t38 26t45.5 7q7 0 16 -1q8 -1 16 -3v114q0 12 -1 24t-6 21t-16 16t-33 9l-336 44q0 16 -1 30.5t-1 28.5zM338 123q0 -26 16 -43q16 -16 42 -16t43 17t17 42q0 26 -17 42.5 t-43 16.5t-42 -16.5t-16 -42.5z" />
<glyph unicode="&#xe24;" horiz-adv-x="841" d="M44 636q44 32 94 58t102 45t103.5 30t97.5 11q52 0 96.5 -7.5t79.5 -23.5t59.5 -41.5t38.5 -63.5q4 -13 7.5 -30.5t4.5 -36t2 -38t1 -35.5v-772l-120 -28v784q0 51 -6.5 85.5t-26 55.5t-55.5 30t-94 9q-31 0 -62.5 -5t-60.5 -12.5t-55.5 -18t-47.5 -22.5q26 -30 37 -56 t11 -54v-256q8 2 16.5 3t15.5 1q24 2 46 -7t38.5 -26t26.5 -41t10 -51q0 -28 -10.5 -51.5t-29 -41.5t-43 -28t-52.5 -10t-53 8.5t-44 28t-30 52.5t-11 81v304q0 26 -5.5 48t-19.5 44q-12 19 -27.5 38.5t-33.5 39.5zM211 124q0 -26 16.5 -43t42.5 -17t42.5 17t16.5 43 t-16.5 42t-42.5 16t-42.5 -16t-16.5 -42z" />
<glyph unicode="&#xe25;" horiz-adv-x="801" d="M62 674q38 24 83 44t93 34t96 22t89 8q104 0 164.5 -31t84.5 -89q13 -30 15.5 -62t2.5 -62v-538h-120v394q-19 3 -37 4.5t-38.5 2.5t-43.5 1t-53 -2q-52 -3 -91.5 -15t-66.5 -33.5t-40.5 -52.5t-11.5 -73q16 14 32 19t28 5q27 2 50 -7t39.5 -25.5t26.5 -40t10 -51.5 t-9 -52t-27 -43t-42 -30t-52 -12q-16 0 -33 2.5t-34.5 9.5t-33 17.5t-26.5 26.5q-14 20 -23.5 38.5t-14.5 37.5t-7 39q-4 21 -4 45q-2 69 23.5 121.5t70 88t104 54.5t127.5 23q52 2 99 0t80 -8v41q0 38 -5 66.5t-22 47.5t-50 29t-89 10q-32 0 -72.5 -8t-80 -21t-74.5 -30 t-59 -35zM182 122q0 -12 5 -23t13 -19t19 -12t23 -4t23 5t19 13t12 19t4 23t-5 23t-13 19t-19 12t-23 4t-23 -5t-19 -13t-12 -19t-4 -23z" />
<glyph unicode="&#xe26;" horiz-adv-x="853" d="M32 124q0 28 10 50.5t27 39t39 25.5t46 9q7 0 13.5 -1t14.5 -3v222q0 26 -10 48t-28 40l-76 82q44 32 92.5 58t99 45t101.5 30t97 11q52 0 95 -7.5t76.5 -23.5t57 -41.5t37.5 -63.5q4 -13 8 -30.5t6 -36t3 -38t1 -35.5v-776l-120 -24v784q0 51 -6 85.5t-24 55.5t-54 30 t-94 9q-31 0 -61.5 -5t-58.5 -12.5t-53 -18t-46 -22.5l24 -24q14 -14 25.5 -29.5t19.5 -34t8 -40.5v-316q0 -48 -11 -80t-30 -52.5t-43.5 -29.5t-52.5 -9t-52 10t-42 27.5t-28.5 40.5t-10.5 51zM99 122q0 -26 16.5 -42t42.5 -16t42 16q17 16 17 42t-16.5 43t-42.5 17 t-42.5 -17t-16.5 -43z" />
<glyph unicode="&#xe27;" horiz-adv-x="684" d="M2 674q26 18 62 38t77 35.5t85 26t86 10.5q45 0 84 -8t70.5 -23t53.5 -38t34 -52v1q13 -30 15.5 -72t2.5 -94v-288q0 -113 -42 -166q-44 -52 -128 -52q-32 0 -56 11t-41.5 30t-26.5 42t-9 47q0 30 10.5 53.5t27.5 40t41 24.5q24 9 50 9q13 0 27.5 -3.5t26.5 -10.5v291 q0 36 -6 64t-23 48t-47 30q-30 11 -80 11q-27 0 -61.5 -9.5t-67.5 -23.5t-62 -30t-45 -30zM344 122q0 -26 17 -42t43 -16t42 16t16 42t-16 43t-42 17t-43 -17t-17 -43z" />
<glyph unicode="&#xe28;" horiz-adv-x="848" d="M112 0v557q0 42 23 81.5t65.5 71.5t102 51t133.5 19q50 0 96 -10q22 3 49.5 11.5t55 24t54.5 39t48 55.5l90 -77q-14 -18 -32.5 -34.5t-41.5 -31.5t-47 -27t-47 -20q35 -28 55 -66t20 -87v-557h-120v526q0 35 -12 63t-37 47.5t-63 29.5t-90 10q-26 0 -58 -7t-60 -22.5 t-46 -40t-18 -58.5v-130q18 26 39.5 46t44.5 33t46.5 20.5t45.5 7.5q27 0 51 -10.5t42 -28.5t28.5 -42t10.5 -51t-10.5 -51t-28.5 -42t-42 -28.5t-51 -10.5q-23 0 -44.5 8.5t-38 23.5t-27 33t-11.5 38q-10 -8 -18.5 -18t-16.5 -19.5t-13 -18t-7 -16.5v-292h-120zM348 391 q0 -26 17 -42.5t42 -16.5q26 0 42.5 17t16.5 42q0 26 -17 42.5t-42 16.5q-26 0 -42.5 -16.5t-16.5 -42.5z" />
<glyph unicode="&#xe29;" horiz-adv-x="918" d="M30 648q0 28 10.5 52t29 42t42.5 28t52 10q30 0 56 -9t44 -27t28 -45t10 -64v-398q0 -32 12 -58.5t35 -46t57 -30.5t78 -11q28 0 57 7.5t54 23.5t41 40t16 58v98q-18 -2 -37 -3t-39 -1q-41 0 -80 10t-69 30.5t-48 50t-18 67.5q0 24 9.5 45.5t25.5 38t38 25.5q20 9 46 9 q24 0 45 -8t36 -23t24 -35t9 -45q0 -27 -14 -49t-35 -30q14 -4 31.5 -5t32.5 -1q11 0 21.5 2t21.5 4v357l120 23v-337q24 13 44 28.5t35 31.5l65 -73q-33 -28 -68.5 -49t-75.5 -35v-134q0 -42 -21 -81.5t-60 -71t-97 -50.5t-131 -19q-60 0 -110.5 16t-88.5 45t-60 70t-22 91 v316q-8 -2 -16 -3t-15 -2q-24 -2 -45.5 7.5t-38.5 26.5t-27 40t-10 51zM104 648q0 -26 17 -42t42 -16q26 0 43 16q16 16 16 42t-17 43t-42 17q-26 0 -42.5 -17t-16.5 -43zM430 479q0 -21 14 -35t36 -14q21 0 34.5 14t13.5 35t-14 35t-34 14q-21 0 -35.5 -14t-14.5 -35z" />
<glyph unicode="&#xe2a;" horiz-adv-x="801" d="M62 674q38 24 83 44t93 34t96 22t89 8q64 0 112 -12q22 4 49.5 12.5t54.5 24t53 38.5t47 55l90 -77q-14 -19 -35.5 -37t-46.5 -33.5t-51 -28t-50 -18.5q8 -10 14 -21t12 -23q13 -30 15.5 -62t2.5 -62v-538h-120v394q-19 3 -37 4.5t-38.5 2.5t-43.5 1t-53 -2 q-52 -3 -91.5 -15t-66.5 -33.5t-40.5 -52.5t-11.5 -73q16 14 32 19t28 5q27 2 50 -7t39.5 -25.5t26.5 -40t10 -51.5t-9 -52t-27 -43t-42 -30t-52 -12q-16 0 -33 2.5t-34.5 9.5t-33 17.5t-26.5 26.5q-14 20 -23.5 38.5t-14.5 37.5t-7 39q-4 21 -4 45q-2 69 23.5 121.5t70 88 t104 54.5t127.5 23q52 2 99 0t80 -8v41q0 38 -5 66.5t-22 47.5t-50 29t-89 10q-32 0 -72.5 -8t-80 -21t-74.5 -30t-59 -35zM182 122q0 -12 5 -23t13 -19t19 -12t23 -4t23 5t19 13t12 19t4 23t-5 23t-13 19t-19 12t-23 4t-23 -5t-19 -13t-12 -19t-4 -23z" />
<glyph unicode="&#xe2b;" horiz-adv-x="885" d="M30 648q0 28 10.5 52t29 42t42.5 28t52 10t53.5 -9t44 -28t29.5 -49t11 -71v-250v-31q0 -12 -2 -27q2 8 4 13.5t5 12t8 15t13 20.5q21 32 47.5 59t55 48.5t57 37t52.5 25.5q-12 10 -20 21.5t-13 23.5t-8 23.5t-3 21.5q0 30 11.5 56t31 45.5t45.5 31t56 11.5 q32 0 59 -11.5t46 -31t29.5 -45.5t10.5 -56q0 -34 -14.5 -61t-44.5 -48q14 -18 22.5 -40.5t13.5 -46.5t7 -46t2 -38v-356h-119v374q0 14 -1 29.5t-4 30t-8 28.5t-15 25q-3 0 -8.5 -1.5t-11.5 -3.5q-26 -9 -62 -30.5t-76 -60.5t-83 -98t-83 -141v-152h-119v528 q-8 -2 -16.5 -3t-15.5 -2q-24 -2 -45.5 7.5t-38.5 26.5t-27 40t-10 51zM104 648q0 -26 17 -42t42 -16q26 0 43 16q16 16 16 42t-17 43t-42 17q-26 0 -42.5 -17t-16.5 -43zM580 635q0 -14 5 -25.5t14 -20.5t20.5 -14t25.5 -5t25.5 5t20.5 14t14 20.5t5 25.5t-5 25.5t-14 20.5 t-20.5 14t-25.5 5t-25.5 -5t-20.5 -14t-14 -20.5t-5 -25.5z" />
<glyph unicode="&#xe2c;" horiz-adv-x="930" d="M30 648q0 28 10.5 52t29 42t42.5 28t52 10q30 0 54.5 -9t42 -27t27 -45t9.5 -65v-288q0 -53 -1 -93q-2 -39 -8 -67q8 32 22.5 72t35.5 84l113 240l73 21l123 -261q21 -44 36 -84t22 -72q-6 28 -7.5 67t-1.5 93v178q0 32 -4 60t-19 48t-44.5 31t-79.5 11q-19 0 -45 -4 t-56 -12l-38 88q44 15 88 22.5t92 7.5q25 0 53.5 3t59 13t63 28t64.5 47l78 -77q-30 -28 -70.5 -51t-83.5 -36q18 -18 29.5 -39.5t17.5 -43.5t7.5 -42t1.5 -36v-542h-110l-166 352q-8 16 -14.5 33t-12 32.5t-9.5 29t-6 22.5q-2 -10 -6 -23t-9 -28.5t-12 -32.5t-14 -33 l-167 -352h-109l-1 528q-8 -2 -16 -3t-15 -2q-24 -2 -45.5 7.5t-38.5 26.5t-27 40t-10 51zM104 648q0 -26 17 -42t42 -16q26 0 43 16q16 16 16 42t-17 43t-42 17q-26 0 -42.5 -17t-16.5 -43z" />
<glyph unicode="&#xe2d;" horiz-adv-x="804" d="M65 675q38 24 83.5 44.5t93.5 34.5t95 22t89 8q102 0 163.5 -31t85.5 -90v1q6 -15 9.5 -31t5.5 -31.5t2 -31.5v-30v-328q0 -42 -21 -81.5t-61 -70.5t-97 -50t-131 -19q-59 0 -109 15.5t-86.5 44.5t-58.5 70t-24 91v172q0 37 10 64.5t28 46.5t42 29q26 9 54 9t52 -10 t42 -27.5t28 -41.5t10 -52t-10 -51.5t-27 -40.5t-39 -26q-21 -10 -45 -8q-7 0 -12 1t-14 4v-44q0 -32 11.5 -58.5t34.5 -46t57 -30.5t78 -11q28 0 57.5 7.5t54 23.5t40.5 40t16 58v306q0 38 -6 67t-24 48t-50 28.5t-84 9.5q-22 0 -47 -4.5t-52 -11.5t-53.5 -17t-51 -20 t-45.5 -21t-37 -21zM178 402q0 -26 17 -42.5t42 -16.5q26 0 42.5 16.5t16.5 42.5t-17 42.5t-42 16.5q-26 0 -42.5 -16.5t-16.5 -42.5z" />
<glyph unicode="&#xe2e;" horiz-adv-x="804" d="M65 675q38 24 83.5 44.5t93.5 34.5t95 22t89 8q18 0 34 -1t32 -3q20 6 42 16t43 25t41 34.5t36 44.5l90 -77q-20 -26 -52 -50.5t-68 -42.5q34 -28 51 -67v1q6 -15 9.5 -31t5.5 -31.5t2 -31.5v-30v-328q0 -42 -21 -81.5t-61 -70.5t-97 -50t-131 -19q-59 0 -109 15.5 t-86.5 44.5t-58.5 70t-24 91v172q0 37 10 64.5t28 46.5t42 29q26 9 54 9t52 -10t42 -27.5t28 -41.5t10 -52t-10 -51.5t-27 -40.5t-39 -26q-21 -10 -45 -8q-7 0 -12 1t-14 4v-44q0 -32 11.5 -58.5t34.5 -46t57 -30.5t78 -11q28 0 57.5 7.5t54 23.5t40.5 40t16 58v306 q0 38 -6 67t-24 48t-50 28.5t-84 9.5q-22 0 -47 -4.5t-52 -11.5t-53.5 -17t-51 -20t-45.5 -21t-37 -21zM178 402q0 -26 17 -42.5t42 -16.5q26 0 42.5 16.5t16.5 42.5t-17 42.5t-42 16.5q-26 0 -42.5 -16.5t-16.5 -42.5z" />
<glyph unicode="&#xe2f;" horiz-adv-x="786" d="M34 570q0 38 8 70t28 63q23 36 57.5 54.5t78.5 18.5q28 0 52.5 -11t43 -29t29 -43t10.5 -53t-9.5 -51.5t-25.5 -41t-39 -27.5t-51 -10q-24 0 -40 6q-14 6 -30 18q5 -26 19.5 -51.5t37.5 -45t53 -30.5t68 -10q47 2 85 17.5t66.5 37.5t46.5 47t26 45v212l119 24v-780h-119 v410q-23 -22 -50.5 -42t-58 -34t-64 -22.5t-68.5 -8.5q-60 0 -110.5 20t-86.5 55.5t-56 84.5t-20 107zM146 640q0 -26 16 -42q16 -17 42 -17t43 16.5t17 42.5t-17 42.5t-43 16.5t-42 -16.5t-16 -42.5z" />
<glyph unicode="&#xe30;" horiz-adv-x="535" d="M32 204q0 26 10 48t27 38.5t41 25.5q22 10 50 10t50 -9.5t37 -25.5t23 -37t8 -44q0 -20 -6 -37.5t-16 -27.5q29 2 55 11.5t47 24.5t36 33q16 18 26 34l83 -59q-18 -31 -49.5 -55t-68.5 -40t-78 -24.5t-79 -8.5q-30 0 -63 4.5t-57 16.5q-35 17 -55.5 48t-20.5 74zM32 614 q0 26 10 48t27 39t41 27q22 9 50 9t50 -9.5t37 -25.5t23 -37t8 -45q0 -20 -6 -37t-16 -27q29 2 55 11.5t47 24t36.5 32.5t25.5 34l83 -58q-18 -31 -49.5 -55.5t-68.5 -40.5t-78 -24t-79 -8q-34 0 -65 4t-55 16q-35 17 -55.5 48t-20.5 74zM100 204q0 -24 16 -39.5t39 -15.5 q24 0 39.5 15.5t15.5 39.5t-16 39.5t-39 15.5q-24 0 -39.5 -15.5t-15.5 -39.5zM100 614q0 -24 16 -39t39 -15q24 0 39 16q16 14 16 38t-16 40t-39 16q-24 0 -39.5 -16t-15.5 -40z" />
<glyph unicode="&#xe31;" d="M-574 1050q0 26 10 48.5t27 39.5t41 26.5t52 9.5t49.5 -9.5t37 -26t23.5 -37.5t8 -45q0 -18 -4 -33t-12 -26q-1 -2 -3.5 -4.5l-4.5 -4.5q3 0 5.5 1t6.5 1q84 2 160 36t148 92l64 -68q-52 -40 -99 -66t-93 -42q-36 -12 -69 -19.5t-61 -11t-51 -4.5t-38 -1q-34 0 -65 4.5 t-56 16.5q-36 18 -56 48.5t-20 74.5zM-506 1050q0 -12 4.5 -22t12 -17t17.5 -11.5t22 -4.5t22 4.5t17.5 11.5t12.5 17q4 10 4 22t-4.5 22t-12 18t-17.5 12t-22 4q-24 0 -40 -16t-16 -40z" />
<glyph unicode="&#xe32;" horiz-adv-x="590" d="M4 678q26 22 58 41t68 33t72 21.5t70 7.5q45 0 82.5 -14t65 -40t43 -63t15.5 -83v-581h-120v526q0 39 -4 67.5t-16.5 46.5t-34.5 27t-58 9q-20 0 -44.5 -4.5t-49.5 -13t-50 -19.5t-45 -25z" />
<glyph unicode="&#xe33;" horiz-adv-x="590" d="M-302 1036q0 27 10 51.5t28 42t42 28t51 10.5t51 -10.5t42 -28t28 -41.5t10 -52q0 -27 -10 -50.5t-28 -41.5t-42 -28t-51 -10t-51 10t-42 28t-28 41.5t-10 50.5zM-230 1036q0 -12 4.5 -23t12.5 -18.5t18.5 -12t23.5 -4.5q12 0 23.5 4.5t19.5 12t12 18.5t4 23t-4 23 t-12 19t-19 12.5t-24 4.5q-12 0 -23 -4.5t-19 -12.5t-12.5 -19t-4.5 -23zM4 678q26 22 58 41t68 33t72 21.5t70 7.5q45 0 82.5 -14t65 -40t43 -63t15.5 -83v-581h-120v526q0 39 -4 67.5t-16.5 46.5t-34.5 27t-58 9q-20 0 -44.5 -4.5t-49.5 -13t-50 -19.5t-45 -25z" />
<glyph unicode="&#xe34;" d="M-764 974q98 56 186 80q87 24 166 24q47 0 94 -7t87.5 -25t71.5 -50t46 -80l-104 -20q-14 27 -35 43.5t-48.5 25.5t-60.5 12t-69 3q-34 0 -70.5 -7t-73 -18.5t-71.5 -28t-65 -34.5z" />
<glyph unicode="&#xe35;" d="M-764 974q98 56 185 80t161 24q28 0 54 -2.5t49.5 -8t46.5 -15.5q22 -8 45 -22v153l111 21v-287l-93 -21q-12 23 -35.5 39t-54.5 26t-67 15q-36 4 -74 4q-32 0 -67.5 -7t-71 -19t-70.5 -28t-65 -34z" />
<glyph unicode="&#xe36;" d="M-764 974q38 22 76 41t77 32t81 20q40 7 84 7q17 0 36.5 -3t37.5 -7t35 -9t31 -11q1 23 12 42t27.5 32.5t37.5 20.5t41 7q26 0 48 -10t39 -27t27 -39.5t10 -48.5t-10 -48.5t-27 -39.5t-39 -27t-48 -10q-8 0 -19 3t-24 7.5t-27 11t-28 14.5q-25 12 -50 21t-47.5 14 t-42.5 7t-36 2q-36 0 -71 -8t-66.5 -20t-60 -27t-50.5 -29zM-242 1021q0 -11 4.5 -21t12 -17t16.5 -11t21 -4q11 0 20.5 4t16.5 11t11.5 17t4.5 21t-4.5 20.5t-11.5 17t-17 11.5t-20 4q-11 0 -20.5 -4t-17 -11.5t-12 -17t-4.5 -20.5z" />
<glyph unicode="&#xe37;" d="M-764 974q42 24 88 44t91 33t87 20q44 7 80 7h14h14v108l96 18v-136q21 -6 43.5 -15t42.5 -23v156l96 18v-287l-86 -21q-15 26 -40.5 42.5t-57 25.5t-67.5 12q-35 4 -73 4q-32 0 -67.5 -7t-71 -19t-70.5 -28t-65 -34z" />
<glyph unicode="&#xe38;" d="M-359 -199q0 26 9.5 48.5t26.5 39t39 25.5q22 10 48 10t48.5 -9.5t39 -26t26.5 -39.5t10 -48v-219l-110 -23v119h-7h-7q-26 0 -48 9.5t-39 26t-26.5 39t-9.5 48.5zM-290 -199q0 -24 16 -39.5t39 -15.5q24 0 39.5 16t15.5 39q0 24 -16 39.5t-39 15.5q-24 0 -39.5 -15.5 t-15.5 -39.5z" />
<glyph unicode="&#xe39;" d="M-559 -191q0 24 9 45t24.5 36.5t37 25t45.5 9.5t45 -9.5t36.5 -25t25 -36.5t9.5 -45v-74q-2 -14 0.5 -27.5t8.5 -23.5t16 -16t25 -6q18 0 28.5 5t16.5 14t8 20t2 23v184l110 21v-213q0 -18 -6.5 -41t-24 -43.5t-48.5 -34.5t-81 -14q-51 0 -82.5 10.5t-49 26.5t-23.5 36 q-5 20 -5 40q-4 -2 -7 -2h-7q-24 0 -44.5 9t-36 24.5t-24 36.5t-8.5 45zM-495 -191q0 -22 14.5 -37t37.5 -15q22 0 37 14.5t15 37.5q0 22 -14.5 37t-37.5 15q-22 0 -37 -15t-15 -37z" />
<glyph unicode="&#xe3a;" d="M-272 -178q0 18 7 34t19 27.5t28 18t34 6.5t34.5 -6.5t28.5 -18t19 -27.5t7 -34t-7 -34.5t-19 -28.5t-28.5 -19t-34.5 -7t-34 7t-28 19t-19 28.5t-7 34.5z" />
<glyph unicode="&#xe3e;" />
<glyph unicode="&#xe3f;" horiz-adv-x="949" d="M136 0v978h268v124l104 24v-150q36 -2 71.5 -7.5t68 -17t59.5 -29.5t47 -45t32 -63q11 -36 11 -84q0 -30 -5 -59t-17 -56t-31.5 -50t-49.5 -43q41 -15 69.5 -37.5t47.5 -53.5t27 -69q8 -36 8 -82q0 -76 -26 -129t-70.5 -86.5t-103.5 -48.5q-58 -16 -124 -16h-14v-146 h-104v146h-268zM268 449v-328h136v328h-136zM268 571h136v283h-136v-283zM508 121h22q49 0 83.5 11.5t56.5 33.5t32 54t10 70q0 45 -16 74.5t-43 47.5t-64 26t-81 10v-327zM508 572q32 2 59 10t47 25t31 43t11 64q0 40 -12 66.5t-32.5 42t-47 22.5t-56.5 9v-282z" />
<glyph unicode="&#xe40;" horiz-adv-x="411" d="M115 148v608l119 22v-534q6 2 14 3t16 1q25 0 47.5 -8.5t39 -25.5t26.5 -40.5t10 -51.5t-10.5 -51.5t-29 -41t-43 -27.5t-52.5 -10t-53 9t-44 28.5t-29.5 49t-10.5 69.5zM195 122q0 -26 16.5 -42t42.5 -16t42 16q17 16 17 42t-16.5 43t-42.5 17t-42.5 -17t-16.5 -43z" />
<glyph unicode="&#xe41;" horiz-adv-x="754" d="M115 148v608l119 22v-534q6 2 14 3t16 1q25 0 47.5 -8.5t39 -25.5t26.5 -40.5t10 -51.5t-10.5 -51.5t-29 -41t-43 -27.5t-52.5 -10t-53 9t-44 28.5t-29.5 49t-10.5 69.5zM195 122q0 -26 16.5 -42t42.5 -16t42 16q17 16 17 42t-16.5 43t-42.5 17t-42.5 -17t-16.5 -43z M458 148v608l119 22v-534q6 2 14 3t15 1q25 0 47.5 -8.5t39.5 -25.5t27 -40.5t10 -51.5t-11 -51.5t-29 -41t-43 -27.5t-52 -10q-28 0 -53.5 9t-44 28.5t-29 49t-10.5 69.5zM538 122q0 -26 16 -42t42 -16t43 16t17 42t-17 43t-43 17t-42 -17t-16 -43z" />
<glyph unicode="&#xe42;" horiz-adv-x="511" d="M6 960q14 38 39 71.5t59 58t75 38.5t87 14q28 0 58 -4.5t60.5 -12t60 -17.5t55.5 -20l-44 -88q-32 11 -57 18.5t-46.5 12.5t-42.5 7q-20 2 -44 2q-42 0 -77 -13t-55 -44q16 -12 36 -26.5t40.5 -34t40.5 -44.5q19 -24 37 -55q14 -26 22 -65.5t8 -87.5v-426q6 2 14 3t16 1 q25 0 47.5 -8.5t39 -25.5t26.5 -40.5t10 -51.5t-10.5 -51.5t-29 -41t-43 -27.5t-52.5 -10t-53 9t-44 28.5t-30 49t-11 69.5v506v34.5t-2.5 39t-7 38t-12.5 32.5q-18 32 -42 60t-49 49t-46 34.5t-33 18.5zM279 122q0 -26 16.5 -42t42.5 -16t42 16q17 16 17 42t-16.5 43 t-42.5 17t-42.5 -17t-16.5 -43z" />
<glyph unicode="&#xe43;" horiz-adv-x="514" d="M-4 971q0 34 16 65t46 54.5t74 37.5q44 13 98 13q40 0 77 -13.5t66.5 -37.5t49.5 -56q21 -32 25 -70q-40 -48 -65 -85t-39 -67q-10 -21 -15 -38.5t-8 -33t-3.5 -29t-0.5 -25.5l1 -442q6 2 14 3t16 1q25 0 47.5 -8.5t39 -25.5t26.5 -40.5t10 -51.5t-10.5 -51.5t-29 -41 t-43 -27.5t-52.5 -10t-53 9t-44 28.5t-30 49t-11 69.5v536q0 22 2 39t6 32.5t11 31t19 35.5q8 15 23.5 37t32 43.5t31 40t20.5 26.5q-3 15 -13 31t-25.5 29.5t-35 22t-41.5 8.5q-8 0 -18 -0.5t-18 -2.5q26 -14 41 -40t15 -53q0 -28 -10 -51t-27 -39t-40.5 -25t-49.5 -9 t-49 11t-39.5 29t-26.5 41.5t-10 49.5zM67 967q0 -24 15.5 -39.5t39.5 -15.5t39 16t15 39q0 24 -16 39q-14 16 -38 16t-39.5 -15.5t-15.5 -39.5zM279 122q0 -26 16.5 -42t42.5 -16t42 16q17 16 17 42t-16.5 43t-42.5 17t-42.5 -17t-16.5 -43z" />
<glyph unicode="&#xe44;" horiz-adv-x="510" d="M-14 1062l49 83q28 -16 62.5 -37.5t66.5 -46.5q32 18 61 31t54.5 23t47.5 17q21 8 39 13l66 -69q-18 -32 -34 -66l-15 -30t-15 -32.5t-13.5 -33t-11.5 -32.5q-9 -28 -14 -54t-7.5 -50t-3 -47t-0.5 -45v-442q6 2 14 3t16 1q25 0 47.5 -8.5t39 -25.5t26.5 -40.5t10 -51.5 t-10.5 -51.5t-29 -41t-43 -27.5t-52.5 -10t-53 9t-43.5 28.5t-29.5 49t-11 69.5l-1 536q0 35 2.5 62.5t7 48.5t10.5 38t12 32q8 18 19.5 41.5t24 47t25 45t20.5 37.5q-19 -8 -41 -19l-44 -22t-42 -22t-34 -21q-40 37 -84 64.5t-88 45.5zM279 122q0 -26 16.5 -42t42.5 -16 t42 16q17 16 17 42t-16.5 43t-42.5 17t-42.5 -17t-16.5 -43z" />
<glyph unicode="&#xe45;" horiz-adv-x="590" d="M4 678q26 22 58 41t68 33t72 21.5t70 7.5q45 0 82.5 -14t65 -40t43 -63t15.5 -83v-853l-120 -23v821q0 39 -4 67.5t-16.5 46.5t-34.5 27t-58 9q-20 0 -44.5 -4.5t-49.5 -13t-50 -19.5t-45 -25z" />
<glyph unicode="&#xe46;" horiz-adv-x="823" d="M72 498v50q0 43 14 81.5t41 69.5t69 52t98 28l104 -99l100 99q44 -8 82 -26.5t65 -45.5t42 -63t15 -80v-544q0 -49 -4 -92t-16 -73q-10 -25 -29.5 -48t-44 -43t-51.5 -36t-53 -29l-51 77q30 16 50.5 31t35.5 31t23.5 35t13 42t6 51t1.5 63v523q0 42 -15.5 73.5 t-48.5 47.5l-121 -111l-126 112q-22 0 -38 -11t-27.5 -28t-17 -37.5t-5.5 -40.5v-65q0 -8 1 -16t3 -18q1 7 3.5 12.5t4.5 9.5q16 23 43 36.5t57 13.5q24 2 46.5 -8t40 -27t28.5 -41t11 -52t-11 -51.5t-31 -41t-45 -27.5t-53 -10q-46 0 -85 17.5t-67 48t-43 72t-15 88.5z M230 402q0 -26 17 -42.5t43 -16.5t42 16.5t16 42.5t-16 42q-16 17 -42 17t-43 -16.5t-17 -42.5z" />
<glyph unicode="&#xe47;" d="M-647 1080q0 5 1 9v9q4 34 21 64.5t45.5 53t68 36.5t87.5 14h198q12 0 18.5 1t15.5 11l57 58l60 -60l-57 -63q-9 -10 -21 -15.5t-24.5 -9.5t-24.5 -5t-21 -1h-191q-28 0 -53 -5t-44 -15t-32 -28t-15 -44q0 -13 4 -27.5t10 -27t14 -22t18 -14.5l134 97q26 19 52 29.5 t50 10.5t45 -9t37 -24.5t25 -36.5t9 -45t-9 -45t-25 -36.5t-37 -24.5t-45 -9q-20 0 -37.5 5t-32 16t-25.5 28t-15 39l-122 -90q-24 0 -48.5 14t-44.5 38t-33 56t-13 68zM-331 1020q0 -22 14.5 -36.5t36.5 -14.5t37 14.5t15 36.5t-15 37t-37 15t-36.5 -15t-14.5 -37z" />
<glyph unicode="&#xe48;" d="M-218 1268v210l106 23v-233h-106z" />
<glyph unicode="&#xe49;" d="M-443 1470q0 22 9 41t24.5 33.5t35.5 23t42 8.5q26 0 46 -9t34 -24t22 -35q6 -20 6 -44q0 -25 -7 -52.5t-29 -56.5q38 8 68 20.5t55.5 29.5t45.5 36t36 40l64 -59q-2 -4 -11 -16t-24.5 -26t-39.5 -30.5t-55 -32t-71 -27.5q-40 -14 -88 -20q-34 -4 -64 -6t-63 -2l-27 68 q22 3 39 7.5t29 9.5t20 11t14 12h-3q-19 -1 -38 6t-35 20.5t-25.5 32.5t-9.5 41zM-379 1468q0 -12 4 -21t10.5 -15t15.5 -9t17 -3q19 0 34 14q14 14 14 36q0 10 -4 18t-10.5 14t-15 10t-18.5 4q-9 0 -17.5 -3.5t-15 -10t-10.5 -15t-4 -19.5z" />
<glyph unicode="&#xe4a;" d="M-582 1383q0 24 9 46.5t26 38.5t38.5 25.5t46.5 9.5q34 0 62.5 -18t41.5 -54l66 71q12 2 19 2h15q30 0 53 -12t36 -32q6 -8 9 -20t3.5 -25.5t-3.5 -28.5q-4 -14 -10 -26q-3 -6 -6 -10q-2 -6 -8 -10q16 5 29.5 17.5t25 29t20.5 35t15 36.5l78 -36q-13 -30 -33 -57.5 t-49 -49.5t-68 -36q-39 -13 -90 -15l-36 44q12 8 23.5 17t20 20t12.5 23q4 13 4 26q0 12 -8 22t-22 12l-114 -130q-16 -17 -38 -26q-24 -8 -48 -8q-22 0 -44 8t-39 22.5t-27 36.5t-10 52zM-512 1384q0 -13 4.5 -22.5t11.5 -16t16.5 -10t19.5 -3.5t19 4t16 11t11.5 17t4.5 22 q0 10 -4.5 19.5t-11.5 16.5t-16 11t-19 4t-19.5 -3.5t-16.5 -10.5t-11.5 -17t-4.5 -22z" />
<glyph unicode="&#xe4b;" d="M-320 1365v85h112v94l96 22v-116h113v-85h-113v-97h-96v97h-112z" />
<glyph unicode="&#xe4c;" d="M-346 1224q0 40 27 78q12 16 30.5 30t40 27t45 24t44.5 20t39 15t29 10l27 -74q-7 -2 -19.5 -6.5t-28 -10.5t-32.5 -13l-32 -16q22 -13 34 -34.5t12 -49.5q0 -22 -8 -42t-23 -35t-35 -23q-20 -9 -42 -9t-42 8.5t-35 23.5t-23 35t-8 42zM-284 1224q0 -10 3.5 -18.5t10 -15 t15.5 -10.5t19 -4t18 4t15 10.5t11 15t4 18.5t-4 18.5t-11 15t-15 10.5t-18 4t-19 -4t-15.5 -10.5t-10 -15t-3.5 -18.5z" />
<glyph unicode="&#xe4d;" d="M-302 1036q0 27 10 51.5t28 42t42 28t51 10.5t51 -10.5t42 -28t28 -41.5t10 -52q0 -27 -10 -50.5t-28 -41.5t-42 -28t-51 -10t-51 10t-42 28t-28 41.5t-10 50.5zM-230 1036q0 -12 4.5 -23t12.5 -18.5t18.5 -12t23.5 -4.5q12 0 23.5 4.5t19.5 12t12 18.5t4 23t-4 23 t-12 19t-19 12.5t-24 4.5q-12 0 -23 -4.5t-19 -12.5t-12.5 -19t-4.5 -23z" />
<glyph unicode="&#xe4e;" d="M-368 1014q0 20 6 40q8 20 22 38q8 9 20 18.5t27 18.5t32 16.5t35 10.5q-6 8 -9 19t-2 23t6 23t13 19q11 12 24.5 20t26.5 12t25 6t21 3l16 -69q-4 0 -11.5 -1t-15.5 -3.5t-15 -8t-8 -13.5q-2 -10 1.5 -20t8.5 -19t12 -17t13 -14q-13 0 -24.5 -2.5t-21.5 -6t-18.5 -7.5 t-13.5 -8q9 -4 17.5 -11.5t14.5 -18t10 -22.5t4 -26q0 -22 -8 -42t-23 -35t-34 -23.5t-42 -8.5q-22 0 -42 8.5t-35 23.5t-23.5 35t-8.5 42zM-302 1014q0 -9 4 -16.5t10 -13.5t13.5 -10t16.5 -4t16.5 4t13.5 10t10 13.5t4 16.5t-4 16.5t-10 13.5t-13.5 10t-16.5 4t-16.5 -4 t-13.5 -10t-10 -13.5t-4 -16.5z" />
<glyph unicode="&#xe4f;" horiz-adv-x="918" d="M64 387q0 54 14 104.5t40 94.5t62 81t80 62.5t94 40t104 14.5t104.5 -14.5t94.5 -40t80.5 -62.5t62 -81t40 -94t14.5 -105q0 -54 -14.5 -104.5t-40 -94t-62 -79.5t-80.5 -61.5t-94.5 -40t-104.5 -14.5t-104 14.5t-94 40t-80 61.5t-62 79.5t-40 94t-14 104.5zM170 386 q0 -60 22.5 -112t62 -91.5t91.5 -62t112 -22.5t112 22.5t91 62t62 91.5t23 112t-23 112t-62 91t-91 62t-112 23t-112 -23t-91.5 -62t-62 -91t-22.5 -112zM245 386q0 44 16.5 82.5t45.5 67.5t68 45.5t83 16.5t82.5 -16.5t67.5 -45.5t45.5 -67.5t16.5 -82.5t-16.5 -83 t-45.5 -68t-67.5 -45.5t-82.5 -16.5t-83 16.5t-68 45.5t-45.5 68t-16.5 83zM347 387q0 -23 8.5 -43t23.5 -35t35.5 -24t43.5 -9t43 9t35 24t23.5 35t8.5 43t-8.5 43t-23.5 35t-35 24t-43 9t-43.5 -9t-35.5 -24t-23.5 -35t-8.5 -43z" />
<glyph unicode="&#xe50;" horiz-adv-x="951" d="M78 350q0 55 15 103.5t42 88.5t63.5 71t80 53t93.5 33.5t101 11.5q90 0 164 -27t126.5 -75.5t81.5 -116.5t29 -148q0 -90 -31 -157t-85 -112t-127 -67t-156 -22q-90 0 -162.5 26t-124.5 74t-81 115t-29 149zM198 358q0 -64 22 -113t59.5 -83.5t88 -52t107.5 -17.5 q50 0 100.5 13.5t90 42t64 73.5t24.5 106q0 47 -10 86t-29 70t-45 55t-56 39.5t-64 22.5q-34 8 -68 8q-36 0 -71 -7t-66.5 -22t-58.5 -36.5t-46.5 -49t-30.5 -61.5t-11 -74z" />
<glyph unicode="&#xe51;" horiz-adv-x="970" d="M26 104l58 97q34 -24 73.5 -43t81 -32.5t81.5 -21t76 -7.5q81 0 146.5 15.5t112.5 47.5t73 80.5t28 113.5q-1 68 -26 115.5t-64.5 77t-88.5 43.5t-99 14q-52 0 -99 -11.5t-83 -33t-58 -53.5t-22 -72q0 -22 5 -38t13 -29q2 26 12 47.5t27.5 36.5t40.5 23t49 8t49.5 -9 t41.5 -26t28 -41t10 -53q0 -34 -14.5 -59.5t-37 -42t-50 -25t-54.5 -8.5q-54 0 -98.5 16t-76 45.5t-48.5 70t-17 89.5q0 36 13 69.5t37.5 63.5t59 54t76.5 42t92 28t104 10q69 -1 125.5 -14.5t100.5 -37t76 -55.5t53.5 -69.5t32.5 -79.5q10 -42 10 -86q0 -96 -34 -167 t-96 -118t-148 -71q-88 -23 -192 -23q-42 0 -89.5 6.5t-97 21.5t-98.5 37t-95 54zM308 352q0 -21 14 -35t34 -14q21 0 35.5 14t14.5 35t-14 35t-36 14q-21 0 -34.5 -14t-13.5 -35z" />
<glyph unicode="&#xe52;" horiz-adv-x="970" d="M24 897l124 32q6 -22 12 -43q5 -18 9.5 -37.5t4.5 -32.5v-482q0 -42 20.5 -83.5t62 -75t103.5 -54t145 -20.5q78 0 134.5 18.5t91.5 48t52 65t17 69.5v179q0 24 -11.5 44.5t-29 35.5t-38.5 25t-40 12l-104 -110l-107 108q-18 -1 -36 -9.5t-33 -22.5t-24.5 -35t-9.5 -48 q0 -13 -0.5 -26t-0.5 -25q18 14 38 20t34 6q28 0 50.5 -10t38 -28t23.5 -41t8 -50q0 -26 -10.5 -49t-29 -41t-42.5 -28.5t-52 -10.5q-32 0 -57 8t-44 22t-33 33t-23 39.5t-14 42t-5 40.5q0 6 -0.5 18t-0.5 24v23v16q0 49 16.5 91.5t48.5 75.5t78 53t105 25l82 -89l79 90 q31 -3 62.5 -10.5t61 -21t55 -32.5t44.5 -43.5t30 -55.5t11 -67v-154q0 -54 -15 -100t-41.5 -83t-62 -65t-77.5 -47t-88 -28t-92 -9h-85q-94 0 -168.5 27t-127 75t-80.5 113t-28 138v403q0 24 -3 46t-7.5 41t-10 34.5t-10.5 25.5zM375 327q0 -21 14 -35t35 -14t35 14t14 35 t-14 35t-35 14t-35 -14t-14 -35z" />
<glyph unicode="&#xe53;" horiz-adv-x="970" d="M85 370q0 72 15.5 131t48.5 103.5t84 73t121 38.5l130 -116l126 116q62 -7 113.5 -30.5t87.5 -59.5t55.5 -81t19.5 -97v-212q0 -38 -5 -74t-19 -68t-38 -61t-64 -52l-70 81q24 16 39.5 35t23.5 40t10.5 42t2.5 41v228q0 28 -11.5 54t-29 47t-39.5 36t-42 19l-160 -143 l-160 145q-16 -2 -37 -16t-39 -41t-31 -69t-13 -100v-82q0 -26 3 -54t10 -60q5 16 16.5 30t27 23t33.5 14t38 5q26 0 50 -9t41.5 -25.5t27.5 -39t10 -49.5q0 -36 -12.5 -62t-33.5 -43.5t-48 -26.5t-55 -9q-52 0 -92 17t-68 49t-44 76q-15 42 -20 96q-2 22 -2.5 56t-0.5 84z M276 125q0 -21 14 -35t36 -14q21 0 34.5 14t13.5 35t-14 35t-34 14q-21 0 -35.5 -14t-14.5 -35z" />
<glyph unicode="&#xe54;" horiz-adv-x="970" d="M62 306v74q0 72 26 131t73 100t115 63t150 22h330q22 0 43 2.5t38.5 6.5t32 8.5t26.5 8.5l34 -114q-22 -6 -42 -12q-18 -4 -37 -8t-31 -4h-414q-55 0 -96.5 -16.5t-69.5 -43t-42 -58.5q-14 -34 -14 -66v-88q0 -42 15 -78.5t43.5 -63.5t71 -42.5t96.5 -15.5h79 q-22 21 -38 46t-25.5 51.5t-14.5 52.5t-4 48q0 34 12.5 61.5t31.5 46.5t43 29t50 10q27 0 50.5 -10t41.5 -27.5t28 -40.5t10 -50q0 -26 -9 -48.5t-24.5 -38.5t-37 -26t-47.5 -12h-10t-6 2q12 -24 28 -42t32.5 -29t33 -17t31.5 -6h188l-29 -112h-432q-62 0 -110 13.5 t-84.5 36.5t-62 53.5t-42 64.5t-24 69.5t-7.5 68.5zM489 326q0 -21 14 -35.5t35 -14.5t35 14t14 36q0 21 -14 34.5t-35 13.5t-35 -13.5t-14 -34.5z" />
<glyph unicode="&#xe55;" horiz-adv-x="970" d="M62 306v74q0 70 24.5 127t69 98t108.5 64t142 27q-4 10 -6 22q-2 14 -2 20q0 30 11 56t31 45.5t46 31t55 11.5q30 0 56.5 -11.5t45.5 -31t30 -45.5t11 -56q0 -8 -2 -21t-9 -21h83q22 0 43 2.5t38.5 6.5t32 8.5t26.5 8.5l34 -114q-22 -6 -42 -12q-18 -4 -37 -8t-31 -4 h-414q-55 0 -96.5 -16.5t-69.5 -43t-42 -58.5q-14 -34 -14 -66v-88q0 -42 15 -78.5t43.5 -63.5t71 -42.5t96.5 -15.5h79q-22 21 -38 46t-25.5 51.5t-14.5 52.5t-4 48q0 34 12.5 61.5t31.5 46.5t43 29t50 10q27 0 50.5 -10t41.5 -27.5t28 -40.5t10 -50q0 -26 -9 -48.5 t-24.5 -38.5t-37 -26t-47.5 -12h-10t-6 2q12 -24 28 -42t32.5 -29t33 -17t31.5 -6h188l-29 -112h-432q-62 0 -110 13.5t-84.5 36.5t-62 53.5t-42 64.5t-24 69.5t-7.5 68.5zM484 740q0 -12 4.5 -21.5t12 -17t17.5 -12t22 -4.5t21.5 4.5t17 12t11.5 17.5q5 9 5 21t-4.5 22 t-12 17.5t-17.5 12.5q-9 4 -21 4t-22 -4.5t-17.5 -12t-12 -17.5t-4.5 -22zM489 326q0 -20 14.5 -35t34.5 -15t34 14q15 16 15 36t-14.5 34t-34.5 14t-34.5 -14t-14.5 -34z" />
<glyph unicode="&#xe56;" horiz-adv-x="970" d="M20 895l114 35l94 -310q41 22 79.5 39t75 27.5t74 16t76.5 5.5q63 0 114 -13t91 -36.5t69 -56t48 -70.5t28 -81t9 -89q0 -77 -26 -144.5t-77 -118.5t-125 -80t-168 -29q-78 0 -140 21t-106 58t-68 87t-26 106q-1 36 9.5 67t31.5 55t50 38t63 14q28 0 52 -10t41 -28 t26 -42t9 -50q0 -27 -9 -48.5t-25 -37t-37.5 -25t-46.5 -12.5q-6 -1 -16 -1t-16 2q17 -25 40.5 -43.5t51.5 -30.5t58 -18t60 -6q54 0 104 18t88 53t61 86t23 116q0 56 -14.5 100.5t-44 75.5t-72.5 47.5t-101 16.5q-96 0 -192 -35q-98 -34 -198 -100zM254 306q0 -21 14 -35.5 t35 -14.5t35 14t14 36q0 21 -14 34.5t-35 13.5t-35 -13.5t-14 -34.5z" />
<glyph unicode="&#xe57;" horiz-adv-x="970" d="M25 347q0 76 18.5 138.5t53.5 108.5t84 74t111 37l92 -91l97 91q76 -9 125.5 -41t79.5 -81t42 -111.5t12 -132.5q0 -25 -5 -53t-13 -58t-21 -59t-28 -55q36 18 62.5 46t43.5 63t25 75t8 85v430q0 32 4 63.5t10 55.5l116 -25q-3 -20 -5 -36.5t-3.5 -33.5t-2.5 -38t-1 -49 v-392q0 -64 -21 -122t-61 -106.5t-98 -84t-130 -53.5l-99 75q46 54 72.5 124.5t26.5 160.5q0 53 -8 94.5t-23 72.5t-35 50t-46 27l-124 -114l-122 112q-23 -6 -40.5 -22.5t-30.5 -39t-22 -49t-15 -54t-8 -53.5t-2 -48q0 -14 1 -34t5 -42t10 -44t16 -42q12 43 44 65.5 t78 22.5q27 0 50.5 -9t41 -25.5t27.5 -39t10 -49.5q0 -33 -12 -59t-32.5 -44t-48.5 -27t-60 -9q-48 0 -85 15.5t-64.5 42t-46.5 61.5t-30.5 74.5t-17 81t-5.5 80.5zM244 125q0 -21 14 -35t36 -14q21 0 34.5 14t13.5 35t-14 35t-34 14q-21 0 -35.5 -14t-14.5 -35z" />
<glyph unicode="&#xe58;" horiz-adv-x="970" d="M76 288v100q0 76 28 134t78 97t120 58t152 19h326q44 0 80 8t60 16l34 -108q-23 -8 -46 -14q-20 -6 -42 -10q-24 -4 -42 -4h-396q-56 0 -99 -14t-72.5 -39t-45 -60t-15.5 -79v-132q0 -26 12 -52t30.5 -48t41.5 -36q22 -14 42 -16l151 112l153 -114q18 2 38 9t37 19.5 t30 30t18 39.5q-7 -2 -16 -4h-17q-26 0 -49 9t-40 26t-27 40t-10 51t11 51t29.5 40.5t42 27.5t49.5 10q44 0 71 -15.5t43.5 -41t23 -56t6.5 -59.5v-31q-2 -56 -23 -102t-57 -80.5t-86 -54t-112 -21.5l-115 98l-127 -98q-60 8 -109 32.5t-85 63t-56 89t-20 109.5zM670 324 q0 -21 14 -34.5t36 -13.5q21 0 34.5 14t13.5 34q0 21 -14 35.5t-34 14.5q-21 0 -35.5 -14.5t-14.5 -35.5z" />
<glyph unicode="&#xe59;" horiz-adv-x="971" d="M56 342q0 87 19.5 153.5t56.5 111.5t91 67.5t123 22.5q24 0 49 -4.5t51 -15.5t52 -30t52 -49q6 29 20 48t30 30.5t35 15.5t38 4h78q26 0 44.5 2t34.5 6t28 9t24 11l30 -107q-22 -11 -52 -20t-69 -9h-83q-40 0 -60 -28t-20 -88l218 -432l-102 -52l-248 488q-12 24 -30 45 t-39 36t-44.5 24t-46.5 9q-27 0 -55.5 -12t-51.5 -40.5t-38 -75t-15 -114.5q0 -19 1.5 -45t7 -54t16.5 -55.5t31 -49.5q3 23 13.5 43.5t27 34.5t38 22.5t46.5 8.5q26 0 49.5 -9.5t41.5 -26.5t28 -39t10 -48t-10 -51.5t-29.5 -45.5t-48 -32.5t-66.5 -12.5q-52 0 -93 15 t-71.5 40t-52 59t-34.5 73.5t-19 82t-6 84.5zM302 122q0 -21 14 -35t36 -14q21 0 34.5 14t13.5 35t-14 35t-34 14q-21 0 -35.5 -14t-14.5 -35z" />
<glyph unicode="&#xe5a;" horiz-adv-x="1022" d="M34 570q0 37 12 73.5t34 66t54 48t72 18.5q28 0 52.5 -11t43 -29t29 -43t10.5 -53t-8.5 -51.5t-25 -41t-41 -27.5t-54.5 -10q-22 0 -39 6t-30 15q6 -23 20.5 -45.5t37 -40.5t54 -29t71.5 -11q42 0 78.5 14.5t66 35.5t49.5 45t28 44v212l119 24v-780h-119v400 q-20 -20 -46.5 -37t-57 -30.5t-65 -21.5t-72.5 -8q-60 0 -110.5 20t-86.5 55.5t-56 84.5t-20 107zM156 640q0 -21 14 -34.5t35 -13.5t35 14t14 34q0 21 -14 35.5t-35 14.5t-35 -14.5t-14 -35.5zM779 0v756l119 24v-780h-119z" />
<glyph unicode="&#xe5b;" horiz-adv-x="1787" d="M79 362q0 70 24.5 132.5t70.5 110t111.5 75t147.5 27.5q52 0 93 -10.5t73.5 -28.5t55.5 -42.5t38 -53t22 -60t7 -63.5q0 -48 -17 -89t-47 -71t-72 -47q-42 -16 -90 -16q-26 0 -52 8t-47 24.5t-34 41t-13 56.5q0 26 10.5 49t28 40.5t40.5 28t49 10.5q24 0 46 -8t38.5 -22 t27 -36t12.5 -51q10 13 14 31t4 43q0 35 -12.5 66t-35.5 54.5t-55.5 37.5t-72.5 15q-53 2 -98 -16.5t-77.5 -53t-51.5 -83.5t-19 -109t21 -109t59 -85t91 -55.5t117 -19.5q58 0 104 18.5t82.5 50t63 75t43.5 93t26 103.5t9 108l94 40q36 -37 73.5 -85t71.5 -96 q16 22 30.5 42t29.5 39t31 39q18 18 36 40q16 -20 32 -41t31.5 -42t30 -42t26.5 -39l72 95h190q24 0 48 9t42 19l32 -106q-18 -8 -36 -15q-16 -6 -33 -10t-30 -4l-193 -2q-14 -16 -26 -32t-24 -33t-24.5 -36t-26.5 -41q-30 48 -59 90t-56 77q-28 -38 -62 -89 q-32 -50 -62 -110q-27 52 -64 111q-38 59 -80 113q-6 -54 -21 -107t-41 -101t-62 -89t-82 -71t-101 -47t-121 -17t-121 14t-100 38t-78.5 58.5t-56 76t-34 88.5t-11.5 97zM416 357q0 -13 5 -24t13 -19t19 -13t25 -5q12 0 23 5t19.5 13t13 19t4.5 24q0 12 -4.5 23.5t-13 19.5 t-19.5 13t-23 5q-13 0 -24.5 -5t-19.5 -13t-13 -19.5t-5 -23.5z" />
<glyph unicode="&#xe6e;" />
<glyph unicode="&#xe000;" horiz-adv-x="500" d="M0 0v0v0v0v0z" />
<glyph unicode="&#xf700;" horiz-adv-x="738" d="M10 671q41 24 85.5 44.5t89.5 34.5t89 22t86 8q32 0 65 -5.5t63 -16.5q26 6 50.5 18t47 27.5t42.5 34t35 36.5l85 -72q-13 -14 -30.5 -29t-39 -30t-45.5 -29q-25 -12 -49 -22q8 -8 12 -15t8 -15q10 -26 13.5 -57t3.5 -69v-301q0 -24 -1.5 -50.5t-7.5 -53.5t-19 -52 t-37 -45t-60 -31t-87 -11q-8 0 -18.5 1t-22.5 2.5t-24 4t-21 4.5l-57 278q-10 -4 -21 -6t-23 -2q-26 -1 -49 7.5t-41 24.5t-29 39.5t-11 52.5q0 28 11 52t29 42t42 28q25 10 53 12q25 2 47 -4t39 -20t29 -34q10 -20 16 -48l65 -335q29 2 45 13.5t23.5 31t9 46t1.5 58.5v284 q0 33 -6 60.5t-24 47.5t-49 32t-79 12q-20 0 -44.5 -4t-50 -11t-52 -15.5t-50 -18.5t-44 -20.5t-34.5 -20.5zM167 398q0 -26 16.5 -42.5t42.5 -16.5t42.5 16.5t16.5 42.5t-16.5 42.5t-42.5 16.5t-42.5 -16.5t-16.5 -42.5z" />
<glyph unicode="&#xf70f;" horiz-adv-x="1189" d="M44 636q44 32 92 58t98 45t100 30t96 11q52 0 94.5 -7.5t75 -23.5t55.5 -41.5t37 -63.5q4 -13 7 -30.5t5 -36t2 -38v-35.5v-262q0 -30 6.5 -57.5t22 -48t40.5 -32.5t64 -12q30 0 52 11t37 31t22.5 49t7.5 65v508l120 23v-531q0 -24 -3 -52t-12 -56t-26 -54.5t-45 -47 t-70 -32.5t-100 -12q-54 0 -97.5 17t-74 47t-47 70t-16.5 87v273q0 51 -4.5 85.5t-22 55.5t-51.5 30q-35 9 -93 9q-31 0 -60.5 -5t-56.5 -12.5t-51.5 -18t-45.5 -22.5q26 -30 37 -56t11 -54v-256q8 2 16.5 3t15.5 1q24 2 46 -7t38.5 -26t26.5 -41t10 -51q0 -28 -10.5 -51.5 t-29 -41.5t-43 -28t-52.5 -10t-53 8.5t-44 28t-30 52.5t-11 81v304q0 26 -5.5 48t-19.5 44q-12 19 -27.5 38.5t-33.5 39.5zM211 123q0 -26 16.5 -42.5t42.5 -16.5t42.5 17t16.5 42q0 26 -16.5 42.5t-42.5 16.5t-42.5 -16.5t-16.5 -42.5z" />
<glyph unicode="&#xf718;" d="M-359 -470q0 26 9.5 48t26.5 39t39 27t48 10t48.5 -10t39 -27t26.5 -39t10 -48v-220l-110 -22v120q-4 0 -7 -1t-7 -1q-26 0 -48 10t-39 27t-26.5 39t-9.5 48zM-290 -470q0 -24 16 -39t39 -15q24 0 39.5 15t15.5 39t-16 39t-39 15q-24 0 -39.5 -15t-15.5 -39z" />
<glyph unicode="&#xf719;" d="M-559 -464q0 24 9 45t24.5 37t37 25t45.5 9t45 -9t36.5 -25t25 -37t9.5 -45v-74q-2 -14 0.5 -27t8.5 -23t16 -16t25 -6q18 0 28.5 5t16.5 14t8 20t2 23v184l110 20v-212q0 -18 -6.5 -41.5t-24 -44t-48.5 -34.5t-81 -14q-51 0 -82.5 10.5t-49 27t-23.5 36.5q-5 20 -5 40 q-4 -2 -7 -2h-7q-24 0 -44.5 9t-36 24t-24 36t-8.5 45zM-495 -464q0 -22 14.5 -37t37.5 -15q22 0 37 15t15 37t-14.5 37t-37.5 15q-22 0 -37 -15t-15 -37z" />
<glyph unicode="&#xf71a;" d="M-272 -420q0 18 7 34t19 27.5t28 18t34 6.5t34.5 -6.5t28.5 -18t19 -27.5t7 -34t-7 -34.5t-19 -28.5t-28.5 -19t-34.5 -7t-34 7t-28 19t-19 28.5t-7 34.5z" />
<glyph unicode="&#xf71d;" horiz-adv-x="930" d="M30 648q0 28 10.5 52t29 42t42.5 28t52 10q30 0 54.5 -9t42 -27t27 -45t9.5 -65v-288q0 -53 -1 -93q-2 -39 -8 -67q8 32 22.5 72t35.5 84l113 240l73 21l123 -261q21 -44 36 -84t22 -72q-6 28 -7.5 67t-1.5 93v178q0 32 -4 60t-19 48t-44.5 31t-79.5 11q-19 0 -45 -4 t-56 -12l-38 88q44 15 88 22.5t92 7.5q25 0 53.5 3t59 13t63 28t64.5 47l78 -77q-30 -28 -70.5 -51t-83.5 -36q18 -18 29.5 -39.5t17.5 -43.5t7.5 -42t1.5 -36v-542h-110l-166 352q-8 16 -14.5 33t-12 32.5t-9.5 29t-6 22.5q-2 -10 -6 -23t-9 -28.5t-12 -32.5t-14 -33 l-167 -352h-109l-1 528q-8 -2 -16 -3t-15 -2q-24 -2 -45.5 7.5t-38.5 26.5t-27 40t-10 51zM104 648q0 -26 17 -42t42 -16q26 0 43 16q16 16 16 42t-17 43t-42 17q-26 0 -42.5 -17t-16.5 -43z" />
<glyph unicode="&#xf880;" horiz-adv-x="819" d="M64 349q0 -49 13 -94t36 -85t56 -72t72 -56t84.5 -36.5t94.5 -12.5t94.5 12.5t85.5 36.5t73 56t56 72t36 85t13 94q0 50 -13 95.5t-36 85.5t-56 73t-73 56t-85.5 36t-94.5 13t-94.5 -13t-84.5 -36t-72 -56t-56 -73t-36 -85.5t-13 -95.5zM160 348q0 54 20 102t56 83 t83 55.5t101 20.5t102 -20.5t83 -55.5t55.5 -83t20.5 -102t-20.5 -101t-55.5 -83t-83 -56t-102 -20t-101 20t-83 56t-56 83t-20 101zM228 348q0 -40 15 -75t41 -61t61 -41t75 -15t75 15t61 41t41 61t15 75t-15 75t-41 61t-61 41t-75 15t-75 -15t-61 -41t-41 -61t-15 -75z M278 776v220h102v-220h-102zM320 349q0 21 8 39.5t21 32t31.5 21.5t39.5 8t39.5 -8t32 -21.5t21 -32t7.5 -39.5q0 -20 -7.5 -38.5t-21 -32t-32 -21t-39.5 -7.5t-39.5 7.5t-31.5 21t-21 32t-8 38.5zM472 776v220h100v-220h-100z" />
</font>
</defs>
</svg>
